<svg width="24" height="30" viewBox="0 0 24 30" fill="none" xmlns="http://www.w3.org/2000/svg">
<path d="M23.5316 22.7538L21.4911 20.7692V13.0769C21.4911 8.35385 18.8969 4.4 14.373 3.35385V2.30769C14.373 1.03077 13.3132 0 12.0003 0C10.6874 0 9.62757 1.03077 9.62757 2.30769V3.35385C5.08782 4.4 2.50949 8.33846 2.50949 13.0769V20.7692L0.468967 22.7538C-0.527565 23.7231 0.168425 25.3846 1.57622 25.3846H22.4085C23.8321 25.3846 24.5281 23.7231 23.5316 22.7538ZM18.3275 22.3077H5.67308V13.0769C5.67308 9.26154 8.06159 6.15385 12.0003 6.15385C15.9389 6.15385 18.3275 9.26154 18.3275 13.0769V22.3077ZM12.0003 30C13.7402 30 15.1639 28.6154 15.1639 26.9231H8.83668C8.83668 28.6154 10.2445 30 12.0003 30Z" fill="white"/>
</svg>
