<svg width="357" height="395" viewBox="0 0 357 395" fill="none" xmlns="http://www.w3.org/2000/svg">
<g clip-path="url(#clip0_192_564)">
<path opacity="0.1" d="M195.824 0.835694C195.824 0.728594 195.824 0.621492 195.774 0.521532C195.724 0.421572 195.774 0.378733 195.724 0.307333C195.727 0.290755 195.727 0.27393 195.724 0.257353C195.712 0.20835 195.695 0.160557 195.674 0.114552C195.678 0.0885267 195.678 0.0620372 195.674 0.0360117C195.655 -0.0182191 195.631 -0.0707548 195.603 -0.121066C195.55 -0.234064 195.483 -0.339683 195.403 -0.435228C195.374 -0.476532 195.34 -0.514801 195.303 -0.549468C195.27 -0.590573 195.232 -0.626657 195.189 -0.656567C195.129 -0.707442 195.064 -0.752844 194.996 -0.792228L194.882 -0.856488C194.539 -0.98576 194.169 -1.02863 193.806 -0.981313C193.442 -0.933996 193.096 -0.797949 192.797 -0.585168L86.0183 60.9831C85.0967 61.5562 84.3391 62.3581 83.8191 63.3107C83.7403 63.4387 83.6711 63.5723 83.6121 63.7105C83.555 63.8176 83.505 63.9247 83.455 64.0318C83.3906 64.1667 83.3334 64.305 83.2836 64.446C83.2265 64.5888 83.1837 64.7316 83.1408 64.8744C83.098 65.0172 83.0837 65.0814 83.0623 65.1885C83.0559 65.2119 83.0559 65.2365 83.0623 65.2599C83.0623 65.3527 83.0195 65.4456 83.0052 65.5384C83.0017 65.6002 83.0017 65.6622 83.0052 65.724C83.0052 65.8097 83.0052 65.8882 83.0052 65.9739C82.9983 66.1071 82.9983 66.2406 83.0052 66.3738V254.156C83.0052 254.27 83.0052 254.37 83.0052 254.477C83.0052 254.584 83.0052 254.663 83.0052 254.756C83.019 254.855 83.0405 254.953 83.0694 255.048L83.1123 255.191C83.1317 255.255 83.1556 255.317 83.1837 255.377C83.27 255.583 83.3961 255.77 83.555 255.927L83.6692 256.041L83.7477 256.091L83.862 256.155C83.9885 256.223 84.1227 256.276 84.2618 256.312H84.426H84.6331C85.1386 256.298 85.6314 256.15 86.0611 255.884L192.747 194.387C193.653 193.796 194.408 193.001 194.948 192.064C195.489 191.127 195.802 190.076 195.86 188.996V1.21411C195.839 1.07131 195.831 0.949934 195.824 0.835694Z" fill="black"/>
<path d="M202.522 4.64846C202.522 4.54136 202.522 4.43426 202.472 4.3343C202.422 4.23434 202.472 4.1915 202.422 4.1201C202.424 4.10352 202.424 4.0867 202.422 4.07012C202.409 4.02112 202.393 3.97332 202.372 3.92732C202.376 3.90129 202.376 3.8748 202.372 3.84878C202.352 3.79455 202.328 3.74201 202.3 3.6917C202.248 3.5787 202.181 3.47308 202.1 3.37754C202.071 3.33624 202.038 3.29797 202.001 3.2633C201.968 3.22219 201.929 3.18611 201.886 3.1562C201.826 3.10533 201.762 3.05992 201.693 3.02054L201.579 2.95628C200.915 2.56358 199.244 1.59968 198.759 1.32122C198.41 1.15888 198.023 1.09376 197.64 1.13271C197.256 1.17167 196.891 1.31325 196.581 1.54256L89.8026 63.1108C88.8806 63.6858 88.1211 64.487 87.5963 65.4384C87.4532 65.6794 87.3268 65.9299 87.2179 66.1881C87.1108 66.4452 87.0108 66.7022 86.9323 66.9592L86.8252 67.3519C86.7387 67.7291 86.6932 68.1145 86.6895 68.5015V256.283C86.6895 256.376 86.6895 256.469 86.6895 256.555C86.6895 256.64 86.6895 256.726 86.6895 256.805L86.7324 257.04C86.7438 257.116 86.7629 257.19 86.7895 257.262C86.8478 257.439 86.9269 257.609 87.0251 257.769C87.1186 257.916 87.2369 258.047 87.375 258.154C87.4322 258.203 87.4944 258.246 87.5606 258.283L88.0961 258.59L89.0386 259.139L90.0096 259.696L90.2809 259.853L90.3595 259.903L90.4737 259.968C90.6002 260.036 90.7345 260.089 90.8736 260.125H91.0378H91.2448C91.7504 260.111 92.2432 259.963 92.6728 259.696L199.423 198.2C200.329 197.609 201.084 196.813 201.624 195.877C202.165 194.94 202.478 193.889 202.536 192.809V5.02688C202.536 4.88408 202.529 4.7627 202.522 4.64846ZM106.689 67.7803C106.685 67.7066 106.685 67.6327 106.689 67.559C106.689 67.4662 106.689 67.3734 106.689 67.2734C106.746 66.1776 107.062 65.1109 107.611 64.1604C108.159 63.2099 108.925 62.4025 109.845 61.8042L110.066 61.6899C110.236 61.6067 110.413 61.5375 110.594 61.4829H110.694C110.774 61.781 110.815 62.0882 110.816 62.3968C110.755 63.491 110.438 64.5556 109.89 65.5045C109.341 66.4534 108.577 67.2599 107.66 67.8589C107.391 68.0147 107.103 68.1347 106.803 68.2159C106.751 68.0746 106.713 67.9288 106.689 67.7803ZM177.803 26.197C177.861 25.102 178.176 24.0362 178.724 23.0859C179.271 22.1357 180.034 21.3278 180.952 20.7277C181.042 20.6745 181.135 20.6268 181.23 20.5849L181.387 20.5135L181.602 20.435L181.809 20.385C181.886 20.6785 181.925 20.9811 181.923 21.2847C181.865 22.3805 181.549 23.4472 181.001 24.3977C180.452 25.3482 179.687 26.1555 178.767 26.7539C178.503 26.912 178.216 27.0299 177.917 27.1038C177.84 26.8078 177.801 26.5029 177.803 26.197Z" fill="#37474F"/>
<path d="M89.6025 70.1937V257.976C89.5731 258.324 89.622 258.675 89.7455 259.002C89.869 259.33 90.0641 259.625 90.3165 259.868L87.5819 258.29C87.262 258.07 87.008 257.767 86.847 257.413C86.686 257.06 86.6241 256.669 86.668 256.283V68.5015C86.7064 67.4192 87.021 66.3648 87.5819 65.4384L90.5022 67.1235C89.9433 68.0525 89.6334 69.1099 89.6025 70.1937Z" fill="#263238"/>
<path d="M202.522 4.64844C202.522 4.54134 202.522 4.43424 202.472 4.33428C202.422 4.23432 202.472 4.19148 202.422 4.12008C202.424 4.1035 202.424 4.08667 202.422 4.0701C202.409 4.02109 202.393 3.9733 202.372 3.9273C202.376 3.90127 202.376 3.87478 202.372 3.84876C202.352 3.79453 202.328 3.74199 202.3 3.69168C202.248 3.57868 202.181 3.47306 202.1 3.37752C202.071 3.33621 202.038 3.29794 202.001 3.26328C201.968 3.22217 201.929 3.18609 201.886 3.15618C201.826 3.1053 201.762 3.0599 201.693 3.02052L201.579 2.95626C201.236 2.82698 200.866 2.78412 200.503 2.83143C200.139 2.87875 199.793 3.0148 199.494 3.22758L92.7157 64.7958C91.7941 65.369 91.0365 66.1709 90.5165 67.1234C90.4377 67.2514 90.3685 67.3851 90.3095 67.5233C90.2524 67.6304 90.2024 67.7375 90.1524 67.8446C90.088 67.9795 90.0308 68.1177 89.981 68.2587C89.9239 68.4015 89.8811 68.5443 89.8382 68.6871C89.7954 68.8299 89.7811 68.8942 89.7597 69.0013C89.7533 69.0246 89.7533 69.0493 89.7597 69.0727C89.7597 69.1655 89.7169 69.2583 89.7026 69.3511C89.6991 69.413 89.6991 69.4749 89.7026 69.5368C89.7026 69.6225 89.7026 69.701 89.7026 69.7867C89.6957 69.9199 89.6957 70.0533 89.7026 70.1865V257.969C89.7026 258.083 89.7026 258.183 89.7026 258.29C89.7026 258.397 89.7026 258.475 89.7026 258.568C89.7164 258.667 89.7379 258.765 89.7668 258.861L89.8097 259.004C89.8291 259.067 89.853 259.129 89.8811 259.189C89.9673 259.395 90.0935 259.582 90.2524 259.739L90.3666 259.854L90.4451 259.903L90.5594 259.968C90.6859 260.036 90.8201 260.089 90.9592 260.125H91.1234H91.3305C91.836 260.111 92.3288 259.963 92.7585 259.696L199.423 198.2C200.329 197.609 201.084 196.813 201.624 195.877C202.165 194.94 202.478 193.889 202.536 192.809V5.02686C202.536 4.88406 202.529 4.76268 202.522 4.64844ZM106.689 67.7803C106.685 67.7066 106.685 67.6327 106.689 67.559C106.689 67.4662 106.689 67.3734 106.689 67.2734C106.746 66.1775 107.062 65.1109 107.611 64.1604C108.159 63.2099 108.925 62.4025 109.845 61.8041L110.066 61.6899C110.236 61.6067 110.413 61.5375 110.594 61.4828H110.694C110.774 61.781 110.815 62.0882 110.816 62.3968C110.755 63.491 110.438 64.5556 109.89 65.5045C109.341 66.4534 108.577 67.2599 107.66 67.8589C107.391 68.0146 107.103 68.1347 106.803 68.2159C106.751 68.0746 106.713 67.9287 106.689 67.7803ZM177.803 26.197C177.861 25.102 178.176 24.0362 178.724 23.0859C179.271 22.1356 180.034 21.3277 180.952 20.7277C181.042 20.6745 181.135 20.6268 181.23 20.5849L181.387 20.5135L181.602 20.435L181.809 20.385C181.886 20.6785 181.925 20.981 181.923 21.2846C181.865 22.3805 181.549 23.4472 181.001 24.3977C180.452 25.3481 179.687 26.1555 178.767 26.7539C178.503 26.912 178.216 27.0299 177.917 27.1037C177.84 26.8078 177.801 26.5029 177.803 26.197Z" fill="#821655"/>
<path d="M91.4233 223.732L200.715 160.636V29.5742L91.4233 92.6703V223.732Z" fill="white"/>
<path d="M110.03 61.6899C110.199 61.6036 110.376 61.5342 110.559 61.4829C110.377 61.5375 110.2 61.6068 110.03 61.6899Z" fill="#263238"/>
<path d="M112.965 63.632C112.904 64.7262 112.587 65.7908 112.039 66.7397C111.49 67.6886 110.727 68.4951 109.809 69.0941C108.381 69.9295 107.138 69.5082 106.767 68.1873C107.067 68.1061 107.355 67.9861 107.624 67.8303C108.542 67.2314 109.306 66.4248 109.854 65.4759C110.402 64.527 110.719 63.4624 110.78 62.3682C110.779 62.0596 110.738 61.7524 110.658 61.4543H110.558C111.937 61.1116 112.965 61.9184 112.965 63.632Z" fill="#263238"/>
<path d="M184.108 22.5555C184.05 23.6514 183.734 24.7181 183.186 25.6686C182.637 26.619 181.872 27.4264 180.952 28.0248C179.524 28.8602 178.289 28.4318 177.917 27.1109C178.216 27.037 178.503 26.9191 178.767 26.761C179.687 26.1626 180.452 25.3553 181.001 24.4048C181.549 23.4543 181.865 22.3876 181.923 21.2918C181.925 20.9882 181.886 20.6857 181.809 20.3921C183.137 20.0494 184.108 20.8776 184.108 22.5555Z" fill="#263238"/>
<path d="M105.903 123.23C105.801 123.23 105.7 123.211 105.606 123.173C105.512 123.135 105.426 123.078 105.353 123.006C105.281 122.935 105.224 122.849 105.184 122.755C105.145 122.661 105.125 122.56 105.125 122.458V96.3189C105.125 96.1823 105.162 96.0481 105.231 95.9302C105.3 95.8123 105.399 95.7148 105.518 95.6477L125.153 84.3094C125.241 84.2588 125.338 84.226 125.439 84.2129C125.54 84.1999 125.642 84.2068 125.74 84.2334C125.838 84.2599 125.93 84.3055 126.011 84.3675C126.091 84.4296 126.159 84.5069 126.209 84.595C126.26 84.6831 126.293 84.7804 126.306 84.8812C126.319 84.982 126.312 85.0844 126.285 85.1825C126.259 85.2806 126.213 85.3726 126.151 85.4531C126.089 85.5336 126.012 85.6011 125.924 85.6517L106.646 96.7616V122.466C106.644 122.664 106.566 122.854 106.428 122.996C106.289 123.139 106.102 123.222 105.903 123.23Z" fill="#821655"/>
<path d="M105.903 204.104C105.767 204.106 105.633 204.069 105.518 203.997C105.399 203.93 105.3 203.833 105.231 203.715C105.162 203.597 105.125 203.463 105.125 203.326V177.201C105.144 177.008 105.233 176.829 105.376 176.699C105.52 176.569 105.706 176.497 105.9 176.497C106.093 176.497 106.28 176.569 106.423 176.699C106.566 176.829 106.656 177.008 106.674 177.201V201.984L125.153 191.324C125.24 191.272 125.337 191.239 125.438 191.225C125.538 191.211 125.641 191.218 125.739 191.243C125.837 191.269 125.929 191.314 126.01 191.376C126.091 191.437 126.158 191.514 126.209 191.602C126.261 191.691 126.294 191.789 126.307 191.89C126.321 191.991 126.314 192.095 126.287 192.193C126.261 192.292 126.215 192.385 126.153 192.466C126.09 192.547 126.012 192.615 125.924 192.666L106.289 203.997C106.173 204.069 106.039 204.106 105.903 204.104Z" fill="#821655"/>
<path d="M186.235 76.8196C186.031 76.8196 185.835 76.7383 185.69 76.5937C185.545 76.4491 185.464 76.253 185.464 76.0485V51.2798L166.993 61.9398C166.815 62.0421 166.604 62.0694 166.406 62.0159C166.207 61.9623 166.039 61.8322 165.936 61.6542C165.834 61.4762 165.807 61.2649 165.86 61.0667C165.914 60.8685 166.044 60.6997 166.222 60.5975L185.85 49.2663C185.967 49.1993 186.1 49.1641 186.235 49.1641C186.371 49.1641 186.503 49.1993 186.621 49.2663C186.74 49.3334 186.839 49.4308 186.908 49.5488C186.977 49.6667 187.013 49.8008 187.014 49.9375V76.0627C187.01 76.266 186.926 76.4596 186.78 76.6013C186.634 76.743 186.439 76.8215 186.235 76.8196Z" fill="#821655"/>
<path d="M166.607 169.054C166.471 169.055 166.337 169.02 166.219 168.953C166.101 168.885 166.004 168.787 165.936 168.669C165.885 168.581 165.852 168.483 165.839 168.382C165.826 168.281 165.833 168.179 165.859 168.081C165.886 167.982 165.931 167.89 165.994 167.81C166.056 167.73 166.134 167.662 166.222 167.612L185.5 156.502V130.798C185.518 130.605 185.608 130.427 185.751 130.296C185.895 130.166 186.081 130.094 186.275 130.094C186.468 130.094 186.655 130.166 186.798 130.296C186.941 130.427 187.031 130.605 187.049 130.798V156.923C187.049 157.06 187.013 157.194 186.944 157.312C186.875 157.43 186.776 157.527 186.657 157.594L166.993 168.926C166.877 169 166.745 169.044 166.607 169.054Z" fill="#821655"/>
<path d="M174.183 140.694L179.452 137.652V123.501C179.402 123.501 179.374 123.501 179.352 123.501L174.419 126.357C174.169 126.5 174.154 126.707 174.154 126.957C174.154 129.027 174.154 131.098 174.154 133.176C174.154 133.511 174.233 133.59 174.49 133.433C175.126 133.04 175.768 132.719 176.411 132.312C176.703 132.126 176.832 132.155 176.825 132.59C176.825 133.454 176.825 134.304 176.825 135.146C176.847 135.291 176.822 135.439 176.752 135.568C176.683 135.697 176.573 135.8 176.439 135.86C175.782 136.217 175.133 136.617 174.476 136.981C174.364 137.035 174.273 137.123 174.215 137.232C174.157 137.341 174.136 137.466 174.154 137.588C174.154 138.623 174.154 139.659 174.154 140.694L171.484 142.236V124.465C170.77 124.872 170.128 125.257 169.478 125.622C168.692 126.071 168.807 126.157 168.764 125.107C168.764 124.243 168.764 123.38 168.764 122.473L166.093 124.015V120.445C165.379 120.809 164.665 121.245 163.951 121.652C163.43 121.952 163.43 121.952 163.43 121.28V119.138C163.43 118.424 163.43 118.424 163.994 118.082L166.079 116.875V113.305C165.301 113.762 164.558 114.169 163.787 114.633C163.516 114.804 163.423 114.733 163.43 114.362C163.43 113.569 163.43 112.791 163.43 112.013C163.43 111.234 163.43 111.299 163.994 110.963L166.101 109.742C166.101 108.643 166.101 107.6 166.101 106.593C166.101 106.201 165.986 106.194 165.729 106.351C165.08 106.75 164.423 107.065 163.773 107.493C163.494 107.664 163.416 107.579 163.423 107.215C163.423 106.336 163.423 105.48 163.423 104.594C163.423 104.223 163.33 104.173 163.059 104.337C162.409 104.737 161.752 105.115 161.103 105.465C160.973 105.528 160.867 105.632 160.804 105.762C160.74 105.891 160.722 106.038 160.753 106.179C160.753 107.058 160.753 107.957 160.753 108.843C160.772 108.955 160.756 109.071 160.706 109.173C160.656 109.276 160.575 109.36 160.474 109.414C159.682 109.856 158.889 110.313 158.097 110.763C158.097 105.18 158.097 99.5962 158.097 94.0127C158.097 93.006 158.097 93.006 157.325 93.4487L155.455 94.5268V90.9568C156.24 90.507 156.99 90.0572 157.747 89.6431C157.876 89.5798 157.982 89.4755 158.046 89.3465C158.111 89.2174 158.131 89.0708 158.104 88.9291C158.104 86.8799 158.104 84.8307 158.104 82.7672C158.104 82.3817 158.018 82.2889 157.725 82.4674C157.126 82.8386 156.526 83.1385 155.926 83.5241C155.548 83.7668 155.405 83.7311 155.412 83.1671C155.412 81.2036 155.412 79.2686 155.412 77.3051C155.412 76.841 155.333 76.7196 154.962 76.941C152.582 78.3309 150.202 79.7042 147.822 81.0608C147.658 81.1344 147.523 81.2609 147.439 81.42C147.355 81.5791 147.326 81.7618 147.358 81.939C147.358 83.8953 147.358 85.8731 147.358 87.8295C147.39 88.0085 147.36 88.1929 147.275 88.3534C147.19 88.5138 147.053 88.6411 146.887 88.7149C146.273 89.0362 145.659 89.4288 145.045 89.7716C144.773 89.9358 144.673 89.8715 144.681 89.5002C144.681 88.6577 144.681 87.8366 144.681 86.987C144.681 86.5657 144.602 86.4372 144.266 86.6514C143.638 87.0441 143.01 87.4011 142.389 87.7367C142.254 87.7963 142.144 87.8987 142.074 88.0279C142.004 88.1571 141.979 88.3058 142.003 88.4507C142.003 89.3075 142.003 90.1857 142.003 91.0639C141.985 91.2636 141.91 91.4541 141.789 91.6137C140.982 92.1063 140.175 92.5633 139.326 93.0417V85.9445C138.469 86.4372 137.662 86.8941 136.855 87.3725C136.748 87.5193 136.682 87.6917 136.662 87.8723C136.662 88.772 136.662 89.6645 136.662 90.5427C136.692 90.6854 136.671 90.8337 136.605 90.9634C136.539 91.0931 136.431 91.1965 136.298 91.2567C135.648 91.6208 134.992 92.0207 134.342 92.3777C134.211 92.4398 134.104 92.5435 134.038 92.6727C133.972 92.8018 133.951 92.9492 133.978 93.0917C133.978 93.8699 133.978 94.6553 133.978 95.4407C133.978 96.2261 133.978 96.1547 134.542 95.8406C135.97 94.998 137.462 94.1484 138.926 93.3201C139.054 93.2487 139.29 93.2702 139.29 93.363C139.29 94.4197 139.29 95.505 139.29 96.6402C138.497 97.0901 137.755 97.5399 137.019 97.9397C136.877 98.0064 136.761 98.1181 136.689 98.2575C136.616 98.3969 136.592 98.5562 136.619 98.7108C136.619 99.7247 136.619 100.753 136.619 101.774L139.276 100.26V103.83L136.712 105.38V108.95C137.476 108.514 138.24 108.086 139.004 107.629C139.29 107.457 139.39 107.5 139.383 107.9C139.383 108.935 139.383 109.942 139.383 110.963L142.153 109.414C142.153 110.599 142.039 111.806 142.11 112.948C143.759 111.998 145.366 111.056 147.008 110.135C147.137 110.056 147.379 110.085 147.387 110.178C147.387 111.234 147.387 112.32 147.387 113.455C144.838 114.933 142.303 116.382 139.761 117.867C139.611 117.953 139.376 117.975 139.376 118.346C139.376 119.424 139.376 120.488 139.376 121.637C140.161 121.18 140.903 120.773 141.639 120.316C141.96 120.124 142.082 120.174 142.067 120.624C142.067 121.473 142.067 122.287 142.067 123.137C142.067 123.594 142.174 123.629 142.496 123.444C143.995 122.558 145.495 121.709 146.994 120.831C147.294 120.652 147.415 120.688 147.408 121.123C147.408 121.966 147.408 122.801 147.408 123.622C147.434 123.779 147.406 123.941 147.33 124.08C147.254 124.22 147.133 124.33 146.987 124.393C146.351 124.743 145.709 125.143 145.073 125.493C144.955 125.55 144.858 125.642 144.796 125.758C144.735 125.874 144.712 126.006 144.731 126.136C144.731 126.95 144.731 127.785 144.731 128.585C144.769 128.773 144.743 128.968 144.656 129.139C144.569 129.31 144.427 129.447 144.252 129.527C143.652 129.834 143.053 130.241 142.453 130.548C142.312 130.614 142.197 130.725 142.125 130.863C142.052 131.001 142.027 131.159 142.053 131.312C142.053 133.54 142.053 135.696 142.053 137.959L139.383 139.502C139.383 140.523 139.383 141.544 139.383 142.572C139.383 142.943 139.475 143 139.747 142.836C140.497 142.386 141.253 141.958 142.046 141.501C142.153 143.643 142.046 145.899 142.089 148.07C142.114 148.223 142.089 148.381 142.017 148.519C141.945 148.657 141.83 148.767 141.689 148.834C140.925 149.255 140.154 149.712 139.39 150.162C139.39 151.161 139.39 152.175 139.39 153.168C139.419 153.328 139.392 153.493 139.314 153.636C139.236 153.779 139.112 153.891 138.961 153.953C138.376 154.267 137.79 154.667 137.205 154.953C136.784 155.153 136.698 155.41 136.712 155.917C136.712 156.852 136.712 157.816 136.712 158.773C137.483 158.344 138.247 157.937 139.011 157.48C139.326 157.287 139.404 157.38 139.404 157.787C139.404 159.794 139.404 161.8 139.404 163.792C139.437 163.968 139.411 164.151 139.33 164.311C139.248 164.471 139.116 164.6 138.954 164.677C137.312 165.62 135.698 166.498 134.063 167.533C134.063 168.569 134.063 169.554 134.063 170.546C134.063 170.939 134.149 171.025 134.442 170.846C135.077 170.454 135.72 170.132 136.362 169.725C136.641 169.554 136.755 169.597 136.748 170.004C136.748 170.868 136.748 171.717 136.748 172.56C136.764 172.704 136.735 172.849 136.667 172.977C136.598 173.104 136.492 173.208 136.362 173.274C135.713 173.631 135.056 173.988 134.406 174.409C134.256 174.532 134.145 174.696 134.085 174.88C134.085 175.951 134.085 177.022 134.085 178.101L139.418 175.023C139.418 174.002 139.418 173.024 139.418 172.06C139.389 171.905 139.411 171.745 139.482 171.604C139.553 171.463 139.669 171.35 139.811 171.282C140.461 170.932 141.118 170.568 141.767 170.154C142.046 169.982 142.132 170.068 142.124 170.432C142.124 171.31 142.124 172.167 142.124 173.045C142.124 173.367 142.174 173.495 142.446 173.331C144.017 172.41 145.58 171.51 147.144 170.618C147.254 170.562 147.344 170.472 147.401 170.362C147.457 170.252 147.477 170.126 147.458 170.004C147.458 169.14 147.458 168.254 147.458 167.398C147.442 167.254 147.469 167.109 147.536 166.982C147.604 166.855 147.709 166.75 147.836 166.684C148.479 166.334 149.114 165.97 149.757 165.577C150.057 165.391 150.136 165.52 150.128 165.891C150.128 166.698 150.128 167.483 150.128 168.297C150.128 168.826 150.235 168.876 150.614 168.661C153.134 167.155 155.648 165.805 158.168 164.249C158.168 160.907 158.168 157.58 158.168 154.253C158.168 153.796 158.239 153.539 158.618 153.368C159.218 153.061 159.817 152.654 160.417 152.347C160.57 152.284 160.696 152.169 160.775 152.023C160.853 151.878 160.878 151.709 160.846 151.547C160.846 150.69 160.846 149.805 160.846 148.941C160.826 148.812 160.848 148.68 160.908 148.565C160.969 148.449 161.064 148.356 161.181 148.298C161.852 147.934 162.516 147.548 163.18 147.149C163.444 146.984 163.516 147.084 163.516 147.413C163.516 148.327 163.516 149.219 163.516 150.133C163.516 150.454 163.602 150.519 163.83 150.376C164.63 149.905 165.379 149.483 166.186 149.012C166.186 151.34 166.186 153.567 166.186 155.788C166.195 155.894 166.17 156 166.115 156.091C166.059 156.182 165.977 156.253 165.879 156.295C165.201 156.688 164.523 157.066 163.844 157.473C163.58 157.63 163.502 157.544 163.509 157.209C163.509 156.331 163.509 155.474 163.509 154.596C163.509 154.246 163.452 154.117 163.159 154.296C162.509 154.696 161.859 155.074 161.203 155.431C161.076 155.499 160.973 155.603 160.907 155.731C160.84 155.858 160.814 156.002 160.831 156.145C160.831 156.938 160.831 157.73 160.831 158.551C160.831 159.058 160.931 159.158 161.31 158.922C162.024 158.465 162.738 158.08 163.502 157.644V161.072L166.172 159.529C166.172 158.63 166.172 157.78 166.172 156.923C166.172 155.924 166.058 156.088 166.829 155.645C168.257 154.817 169.685 153.982 171.113 153.182C171.269 153.109 171.397 152.986 171.476 152.832C171.555 152.678 171.58 152.502 171.548 152.332C171.441 148.398 172.127 149.262 169.178 150.726C169.064 150.783 168.864 150.726 168.864 150.612C168.864 149.569 168.864 148.505 168.864 147.406C170.477 146.399 172.062 145.549 173.676 144.592C174.219 144.278 174.219 144.278 174.219 143.529C174.126 142.579 174.104 141.694 174.183 140.694ZM139.418 100.26V96.6902C140.311 96.1833 141.161 95.6406 142.046 95.1051C142.046 94.077 142.11 93.0274 142.11 92.0064C142.089 91.8847 142.107 91.7594 142.163 91.6489C142.218 91.5384 142.307 91.4485 142.417 91.3924C143.131 91.0139 143.781 90.6212 144.459 90.2214C144.702 90.0786 144.773 90.1643 144.773 90.4713C144.773 93.7462 144.773 97.0211 144.773 100.296C144.791 100.426 144.767 100.559 144.705 100.675C144.644 100.792 144.548 100.886 144.431 100.946C143.774 101.303 143.124 101.66 142.467 102.074C142.196 102.238 142.096 102.181 142.103 101.81C142.103 100.767 142.103 99.7747 142.103 98.7466L139.418 100.26ZM144.366 108.071C143.652 108.471 142.938 108.914 142.189 109.342C142.13 109.217 142.084 109.085 142.053 108.95C142.053 108.05 142.053 107.143 142.053 106.251C142.031 106.122 142.051 105.989 142.111 105.872C142.17 105.755 142.265 105.66 142.381 105.601C143.045 105.244 143.71 104.887 144.374 104.451C144.652 104.287 144.731 104.394 144.723 104.744C144.723 105.601 144.723 106.458 144.723 107.293C144.753 107.448 144.731 107.608 144.66 107.749C144.589 107.89 144.473 108.003 144.331 108.071H144.366ZM163.716 125.372L166.086 124.022V127.549C165.237 128.042 164.423 128.52 163.602 128.977C163.544 128.977 163.437 128.87 163.437 128.756C163.437 127.813 163.437 126.85 163.437 125.9C163.423 125.794 163.442 125.686 163.492 125.591C163.542 125.496 163.62 125.42 163.716 125.372ZM158.368 114.219C159.082 113.812 159.746 113.426 160.439 113.012C160.667 112.877 160.767 112.919 160.767 113.241C160.767 114.155 160.767 115.061 160.767 115.961C160.781 116.084 160.758 116.208 160.699 116.317C160.64 116.425 160.549 116.513 160.439 116.568C159.775 116.939 159.103 117.282 158.439 117.725C158.154 117.896 158.089 117.775 158.089 117.425C158.089 116.432 158.089 115.454 158.089 114.469C158.174 114.379 158.267 114.297 158.368 114.226V114.219ZM158.097 121.887C158.078 121.764 158.1 121.638 158.159 121.529C158.218 121.419 158.312 121.332 158.425 121.28C158.768 121.095 159.103 120.895 159.446 120.695C159.789 120.495 160.124 120.316 160.46 120.109C160.681 119.974 160.767 120.045 160.76 120.338C160.76 121.266 160.76 122.187 160.76 123.101C160.775 123.216 160.754 123.332 160.699 123.433C160.644 123.535 160.557 123.616 160.453 123.665C159.739 124.051 159.096 124.436 158.411 124.843C158.182 124.986 158.089 124.922 158.097 124.6C158.104 123.701 158.104 122.794 158.097 121.894V121.887ZM155.426 101.224C155.446 101.345 155.427 101.468 155.371 101.577C155.316 101.687 155.228 101.775 155.119 101.831C154.405 102.217 153.734 102.616 153.049 103.023C152.863 103.131 152.756 103.131 152.756 102.838C152.756 101.767 152.756 100.696 152.756 99.6176C153.52 99.1749 154.284 98.7466 155.048 98.2896C155.319 98.1254 155.405 98.1968 155.398 98.5681C155.412 99.4677 155.419 100.382 155.426 101.231V101.224ZM150.071 104.259C150.098 104.4 150.078 104.547 150.014 104.676C149.949 104.805 149.844 104.909 149.714 104.973C149.065 105.33 148.408 105.687 147.758 106.101C147.479 106.265 147.394 106.179 147.401 105.822C147.401 103.759 147.401 101.71 147.401 99.6605C147.401 99.432 147.401 99.1964 147.644 99.0464L152.763 96.0976V99.6676C152.049 100.103 151.256 100.574 150.507 100.974C150.341 101.05 150.206 101.179 150.123 101.341C150.04 101.503 150.014 101.688 150.05 101.867C150.086 102.616 150.057 103.452 150.071 104.266V104.259ZM147.401 88.9576C147.373 88.815 147.394 88.6672 147.46 88.5378C147.526 88.4083 147.633 88.3048 147.765 88.2436C148.322 87.9366 148.886 87.601 149.45 87.2797C150.164 86.8727 150.064 87.0227 150.064 86.0731C150.064 85.3591 150.064 84.6022 150.064 83.8811C150.048 83.7378 150.075 83.5928 150.143 83.4654C150.21 83.3379 150.315 83.2339 150.443 83.1671C151.085 82.8172 151.721 82.4531 152.363 82.0604C152.663 81.8747 152.777 81.9318 152.77 82.3602C152.77 83.4027 152.77 84.3452 152.77 85.3876L155.426 83.8525C155.426 84.9949 155.426 86.0588 155.426 87.1441C155.361 87.3238 155.244 87.4802 155.091 87.5939C153.441 88.5649 151.785 89.486 150.136 90.5498C150.136 91.578 150.086 92.6276 150.086 93.6414C150.108 93.7715 150.087 93.9053 150.027 94.0225C149.966 94.1398 149.869 94.2341 149.75 94.2912C149.093 94.6482 148.443 95.0052 147.794 95.4193C147.522 95.5835 147.415 95.5336 147.422 95.1623C147.418 93.0869 147.41 91.0187 147.401 88.9576ZM142.103 137.874C142.917 137.403 143.731 136.924 144.545 136.446C144.609 136.446 144.723 136.546 144.723 136.653C144.723 137.605 144.723 138.576 144.723 139.566C144.705 139.715 144.64 139.855 144.538 139.966C143.731 140.451 142.931 140.908 142.103 141.394V137.874ZM144.738 167.933C144.755 168.064 144.731 168.198 144.668 168.315C144.605 168.431 144.507 168.525 144.388 168.583C143.724 168.954 143.06 169.34 142.389 169.74C142.16 169.875 142.06 169.825 142.067 169.497C142.067 169.04 142.067 168.597 142.067 168.14C142.067 167.683 142.067 167.212 142.067 166.712C142.105 166.522 142.197 166.346 142.331 166.205C143.045 165.777 143.717 165.398 144.402 164.991C144.652 164.842 144.716 164.956 144.716 165.256C144.731 166.155 144.731 167.041 144.738 167.926V167.933ZM144.738 157.223C144.718 157.419 144.647 157.607 144.531 157.766C143.738 158.251 142.946 158.701 142.089 159.194V156.788C142.089 155.659 142.089 155.652 142.924 155.174L144.83 154.11C144.738 155.15 144.703 156.194 144.723 157.237L144.738 157.223ZM146.944 152.853C146.23 153.225 145.516 153.675 144.802 154.089C144.701 153.061 144.672 152.028 144.716 150.997C144.716 150.661 144.638 150.576 144.381 150.733C143.717 151.133 143.045 151.518 142.381 151.875C142.274 151.94 142.074 151.875 142.067 151.775C142.067 150.733 142.067 149.669 142.067 148.527L144.131 147.341C144.788 146.956 144.731 147.077 144.731 146.17V139.88L146.473 138.873C147.394 138.338 147.394 138.338 147.394 139.587C147.394 143.707 147.394 147.834 147.394 151.954C147.408 152.439 147.315 152.661 146.93 152.868L146.944 152.853ZM152.385 160.408C149.464 161.921 150.164 162.55 150.086 158.615C150.086 158.273 150 158.208 149.75 158.366C146.751 159.986 147.544 160.465 147.408 156.645C147.383 156.49 147.411 156.331 147.485 156.193C147.56 156.054 147.679 155.945 147.822 155.881C149.471 154.945 151.121 153.982 152.777 153.025C152.777 155.224 152.777 157.437 152.777 159.629C152.809 159.788 152.787 159.953 152.713 160.097C152.639 160.241 152.518 160.355 152.37 160.422L152.385 160.408ZM155.441 151.475L152.763 153.018C152.763 150.783 152.763 148.548 152.763 146.313C152.749 146.2 152.77 146.085 152.824 145.984C152.878 145.883 152.961 145.801 153.063 145.749C153.777 145.364 154.448 144.964 155.141 144.557C155.319 144.45 155.433 144.443 155.433 144.735C155.419 146.956 155.426 149.184 155.426 151.49L155.441 151.475ZM155.441 140.308C155.457 140.452 155.43 140.597 155.362 140.724C155.294 140.852 155.19 140.956 155.062 141.022C154.427 141.365 153.784 141.736 153.149 142.129C152.863 142.301 152.749 142.265 152.763 141.858C152.763 140.987 152.763 140.151 152.763 139.287C152.763 138.902 152.692 138.809 152.392 138.988C151.742 139.395 151.085 139.702 150.435 140.137C150.171 140.294 150.057 140.251 150.064 139.873C150.064 138.98 150.064 138.095 150.064 137.21C150.045 137.08 150.069 136.948 150.132 136.833C150.195 136.718 150.294 136.627 150.414 136.574C151.092 136.196 151.771 135.789 152.456 135.403C152.56 135.355 152.646 135.276 152.701 135.175C152.756 135.075 152.778 134.96 152.763 134.846C152.763 133.833 152.763 132.797 152.763 131.712C151.114 132.569 149.471 133.583 147.822 134.532C147.501 134.718 147.387 134.661 147.394 134.218C147.394 133.354 147.394 132.504 147.394 131.655C147.366 131.512 147.387 131.364 147.453 131.235C147.519 131.106 147.626 131.002 147.758 130.941C148.393 130.584 149.036 130.227 149.679 129.841C149.813 129.782 149.923 129.679 149.993 129.55C150.063 129.421 150.088 129.272 150.064 129.127C150.064 124.558 150.114 119.917 150.021 115.376C149.264 115.818 148.536 116.218 147.808 116.668C147.479 116.868 147.379 116.782 147.387 116.347C147.387 115.361 147.387 114.397 147.387 113.355L152.749 110.263V107.407C152.749 106.693 152.749 106.693 153.277 106.393C153.805 106.094 154.455 105.737 155.041 105.372C155.341 105.187 155.419 105.287 155.412 105.665C155.412 107.886 155.412 110.049 155.412 112.27L158.075 110.735V114.426C157.99 114.437 157.906 114.459 157.825 114.49C156.147 115.49 154.469 116.361 152.792 117.439V120.952L154.869 119.752C155.433 119.431 155.433 119.431 155.433 120.159V130.155C157.09 129.192 158.718 128.27 160.374 127.299C160.674 127.121 160.788 127.157 160.774 127.592C160.774 128.42 160.774 129.241 160.774 130.048C160.807 130.217 160.782 130.392 160.703 130.545C160.624 130.698 160.495 130.82 160.339 130.891C158.696 131.812 157.083 132.761 155.433 133.711C155.426 135.939 155.419 138.124 155.433 140.323L155.441 140.308ZM166.093 141.794C163.559 143.264 161.045 144.707 158.511 146.185C158.189 146.37 158.089 146.32 158.089 145.878C158.089 142.684 158.089 139.497 158.089 136.317C158.062 136.148 158.091 135.974 158.172 135.823C158.254 135.672 158.383 135.552 158.539 135.482C160.919 134.13 163.299 132.759 165.679 131.369C166.029 131.162 166.122 131.241 166.122 131.698C166.086 135.075 166.101 138.416 166.093 141.794ZM121.047 153.575C120.783 153.732 120.676 153.696 120.676 153.325C120.676 151.247 120.676 149.184 120.676 147.12C120.658 146.978 120.683 146.834 120.748 146.707C120.813 146.58 120.915 146.475 121.04 146.406C122.597 145.521 124.148 144.626 125.695 143.721C125.974 143.557 126.045 143.65 126.045 144.007C126.045 145.049 126.045 146.078 126.045 147.113C127.68 146.17 129.315 145.214 130.95 144.293C131.102 144.23 131.227 144.117 131.305 143.972C131.383 143.828 131.409 143.661 131.379 143.5C131.379 142.515 131.379 141.508 131.379 140.508C129.601 141.358 127.809 142.586 126.045 143.493C126.045 142.436 126.045 141.437 126.045 140.423C126.045 140.08 125.959 140.009 125.71 140.159C125.053 140.551 124.403 140.873 123.753 141.301C123.453 141.479 123.368 141.394 123.368 141.008C123.368 138.788 123.368 136.631 123.368 134.404C121.718 135.36 120.098 136.282 118.448 137.26C118.105 137.467 117.991 137.381 118.006 136.917C118.006 136.089 118.006 135.268 118.006 134.461C117.973 134.299 117.997 134.132 118.074 133.986C118.15 133.84 118.275 133.725 118.427 133.661C120.961 132.19 123.496 130.805 126.031 129.241C126.031 126.957 126.031 124.736 126.031 122.508C126.031 122.216 125.909 122.23 125.731 122.337C125.017 122.737 124.346 123.144 123.653 123.529C123.551 123.582 123.467 123.665 123.415 123.768C123.362 123.87 123.343 123.987 123.361 124.101C123.361 125.172 123.361 126.171 123.361 127.264L121.59 128.292C120.669 128.82 120.669 128.82 120.669 127.578V125.25C119.883 125.707 119.169 126.143 118.455 126.521C118.077 126.714 117.991 126.95 117.991 127.407C117.991 129.549 118.041 131.691 117.991 133.918L112.729 136.96C112.651 138.059 112.729 139.023 112.686 140.094C112.686 140.508 112.8 140.53 113.079 140.358C113.736 139.966 114.386 139.644 115.042 139.223C115.278 139.08 115.364 139.152 115.364 139.466C115.364 140.358 115.364 141.251 115.364 142.129C115.383 142.268 115.357 142.41 115.289 142.532C115.22 142.654 115.114 142.751 114.985 142.807C114.364 143.157 113.736 143.521 113.107 143.878C112.959 143.949 112.838 144.066 112.762 144.211C112.686 144.357 112.659 144.523 112.686 144.685C112.686 146.827 112.651 149.069 112.686 151.218C113.472 150.769 114.214 150.326 114.992 149.905C115.1 149.84 115.299 149.905 115.299 149.962C115.299 151.04 115.299 152.104 115.299 153.296L112.686 154.803V158.373C113.472 157.916 114.214 157.502 114.957 157.052C115.235 156.888 115.321 156.966 115.314 157.323C115.314 158.223 115.314 159.101 115.314 159.993C115.314 160.3 115.392 160.386 115.635 160.243C116.311 159.839 116.989 159.446 117.67 159.065C117.78 159.006 117.869 158.915 117.925 158.804C117.981 158.693 118.002 158.567 117.984 158.444C117.984 157.416 117.984 156.388 117.984 155.338L120.604 153.825C120.64 154.824 120.604 155.831 120.604 156.852C120.604 157.202 120.669 157.323 120.954 157.152C121.625 156.745 122.29 156.359 122.954 155.995C123.086 155.935 123.193 155.831 123.258 155.701C123.323 155.571 123.342 155.423 123.311 155.281C123.311 154.267 123.311 153.239 123.311 152.211C122.604 152.682 121.825 153.118 121.047 153.575ZM118.013 155.317C117.163 155.809 116.363 156.281 115.556 156.745C115.492 156.745 115.364 156.666 115.364 156.566C115.364 155.517 115.364 154.424 115.364 153.325C116.213 152.832 116.999 152.375 117.777 151.947C117.863 151.897 118.006 151.997 118.013 152.104C118.02 153.125 118.013 154.189 118.013 155.317ZM120.319 143.293C119.783 143.586 119.248 143.9 118.712 144.214C117.934 144.678 117.998 144.493 117.998 145.528C117.998 146.242 117.998 146.992 117.998 147.713C118.018 147.844 117.996 147.979 117.934 148.097C117.873 148.215 117.775 148.311 117.656 148.37C116.992 148.741 116.328 149.084 115.664 149.519C115.407 149.676 115.328 149.583 115.328 149.255C115.328 148.205 115.328 147.163 115.328 146.12C115.328 145.078 115.328 144.136 115.328 143.15C115.298 142.995 115.321 142.835 115.392 142.694C115.463 142.553 115.579 142.44 115.721 142.372C117.242 141.515 118.769 140.63 120.29 139.737C120.554 139.58 120.669 139.616 120.662 139.994C120.662 140.873 120.662 141.744 120.662 142.6C120.685 142.737 120.664 142.878 120.603 143.002C120.541 143.127 120.442 143.229 120.319 143.293ZM161.274 98.311L179.452 87.8152V63.5963C179.452 62.8823 179.452 62.8823 178.903 63.1822L161.274 73.3567C160.76 73.6494 160.76 73.6566 160.76 74.3349V97.8969C160.76 98.5752 160.76 98.5752 161.274 98.2824V98.311ZM163.88 75.3916C168.021 73.0116 172.16 70.6316 176.296 68.2516C176.711 68.016 176.796 68.1588 176.789 68.6657C176.789 71.4218 176.789 74.1707 176.789 76.9196C176.789 79.6685 176.789 82.4245 176.789 85.1663C176.822 85.3519 176.792 85.5431 176.704 85.7099C176.616 85.8766 176.475 86.0094 176.304 86.0873C172.162 88.4673 168.024 90.8473 163.887 93.2273C163.537 93.4272 163.416 93.3844 163.416 92.8917C163.416 87.3511 163.416 81.8152 163.416 76.2841C163.385 76.105 163.413 75.9206 163.497 75.7593C163.581 75.598 163.715 75.4688 163.88 75.3916ZM113.186 126.086C119.093 122.668 124.996 119.257 130.893 115.854C131.407 115.561 131.407 115.561 131.407 114.876V91.3138C131.407 90.6355 131.407 90.6355 130.893 90.9282C124.838 94.4483 118.755 97.8683 112.736 101.438C112.679 109.564 112.736 117.61 112.736 125.714C112.679 126.207 112.779 126.286 113.157 126.086H113.186ZM115.378 104.009C115.354 103.845 115.382 103.678 115.459 103.532C115.536 103.385 115.658 103.267 115.806 103.195C119.986 100.815 124.163 98.4038 128.337 95.9619C128.673 95.762 128.744 95.8977 128.744 96.3047C128.744 99.1178 128.744 101.917 128.744 104.716C128.744 107.514 128.744 110.221 128.744 112.962C128.772 113.133 128.743 113.307 128.662 113.46C128.581 113.612 128.451 113.733 128.294 113.805C124.134 116.185 119.971 118.589 115.806 121.016C115.492 121.202 115.371 121.159 115.371 120.716C115.366 115.128 115.359 109.552 115.349 103.987L115.378 104.009ZM130.936 155.003C124.867 158.52 118.8 162.026 112.736 165.52C112.672 173.659 112.736 181.713 112.736 189.832C112.736 190.331 112.836 190.41 113.215 190.189C119.288 186.671 125.362 183.163 131.436 179.664C131.436 171.572 131.436 163.48 131.436 155.388C131.386 154.838 131.286 154.76 130.907 154.981L130.936 155.003ZM128.294 177.915C124.139 180.295 119.988 182.692 115.842 185.105C115.471 185.319 115.371 185.219 115.378 184.748C115.378 179.221 115.378 173.702 115.378 168.19C115.343 168.004 115.371 167.812 115.458 167.644C115.544 167.476 115.685 167.341 115.856 167.262C117.941 166.077 120.033 164.863 122.118 163.656C124.203 162.45 126.245 161.286 128.309 160.086C128.658 159.879 128.751 159.972 128.744 160.429C128.744 165.984 128.744 171.536 128.744 177.087C128.759 177.254 128.722 177.423 128.636 177.568C128.55 177.712 128.42 177.826 128.266 177.893L128.294 177.915ZM179.452 94.9195L176.818 96.4403C176.818 95.3622 176.818 94.3626 176.818 93.3487C176.818 93.0131 176.739 92.9274 176.475 93.0845C175.811 93.4844 175.147 93.8699 174.483 94.2341C174.364 94.2946 174.267 94.3916 174.206 94.5111C174.146 94.6305 174.125 94.7661 174.147 94.8981C174.147 95.7763 174.147 96.6617 174.147 97.5613C174.147 97.904 174.233 97.9611 174.483 97.8112C175.14 97.4114 175.79 97.0972 176.446 96.6617C176.746 96.476 176.825 96.5831 176.818 96.9616C176.818 97.8255 176.818 98.6823 176.818 99.5177C176.84 99.6633 176.813 99.8121 176.742 99.9411C176.671 100.07 176.56 100.172 176.425 100.232C174.769 101.174 173.155 102.117 171.491 103.088C171.491 104.237 171.491 105.33 171.491 106.408C171.491 106.501 171.684 106.543 171.784 106.486C172.398 106.158 173.012 105.772 173.626 105.437C174.24 105.101 174.133 105.151 174.133 105.844C174.133 107.814 174.133 109.778 174.133 111.748C174.133 112.134 174.226 112.22 174.519 112.041C175.147 111.656 175.775 111.327 176.396 110.942C176.703 110.756 176.818 110.813 176.811 111.234C176.811 112.034 176.811 112.819 176.811 113.583C176.854 113.777 176.828 113.98 176.738 114.157C176.648 114.334 176.5 114.475 176.318 114.555C174.697 115.433 173.098 116.454 171.477 117.311C171.477 115.119 171.477 112.977 171.477 110.785C171.477 110.342 171.377 110.263 171.056 110.47C170.427 110.856 169.799 111.184 169.171 111.556C169.031 111.622 168.917 111.731 168.845 111.868C168.773 112.004 168.747 112.16 168.771 112.313C168.771 114.497 168.728 116.718 168.771 118.881C169.656 118.346 170.506 117.903 171.384 117.453C171.384 118.617 171.448 119.717 171.434 120.931C172.205 120.481 172.912 120.109 173.576 119.652C173.997 119.381 174.09 119.531 174.069 120.052C174.069 120.888 174.069 121.687 174.069 122.516C174.069 122.815 174.133 122.915 174.383 122.766C175.097 122.359 175.74 121.966 176.418 121.595C176.528 121.538 176.619 121.449 176.676 121.339C176.734 121.229 176.756 121.104 176.739 120.981C176.739 120.167 176.739 119.345 176.739 118.524C176.739 117.853 176.739 117.846 177.253 117.553L179.352 116.34C179.474 112.848 179.352 109.471 179.402 106.015C179.402 105.679 179.295 105.665 179.074 105.801C178.417 106.186 177.767 106.515 177.11 106.936C176.818 107.115 176.725 107.022 176.732 106.636C176.732 105.772 176.732 104.923 176.732 104.08C176.704 103.938 176.725 103.79 176.791 103.66C176.857 103.531 176.964 103.427 177.096 103.366C177.71 103.031 178.324 102.652 178.938 102.317C179.103 102.245 179.239 102.121 179.325 101.963C179.41 101.805 179.44 101.622 179.41 101.445C179.417 99.2749 179.488 97.0615 179.424 94.8981L179.452 94.9195ZM136.698 137.431C136.698 136.567 136.698 135.703 136.698 134.839C136.698 133.825 136.698 133.825 137.462 133.411L139.34 132.333V125.243L136.784 126.721C136.732 126.771 136.689 126.829 136.655 126.892C136.678 126.945 136.692 127 136.698 127.057C136.698 129.199 136.698 131.341 136.698 133.483C136.714 133.596 136.693 133.712 136.638 133.812C136.582 133.913 136.496 133.993 136.391 134.04C135.677 134.425 135.034 134.811 134.356 135.218C134.099 135.368 134.021 135.282 134.021 134.946C134.021 134.068 134.021 133.211 134.021 132.333C134.021 131.976 133.949 131.883 133.671 132.048C132.128 132.947 130.593 133.833 129.051 134.711C128.919 134.772 128.812 134.875 128.746 135.005C128.68 135.134 128.659 135.282 128.687 135.425C128.687 136.289 128.687 137.16 128.687 138.031C128.687 138.402 128.773 138.481 129.044 138.309C129.694 137.917 130.351 137.595 131 137.174C131.279 137.003 131.364 137.095 131.357 137.452C131.357 138.495 131.357 139.53 131.357 140.566C133.157 139.409 134.913 138.431 136.698 137.431ZM177.196 146.07C177.839 145.735 178.474 145.356 179.117 144.978C179.234 144.919 179.33 144.825 179.39 144.708C179.451 144.591 179.472 144.458 179.452 144.328C179.452 143.436 179.452 142.529 179.452 141.615C179.452 141.322 179.374 141.258 179.16 141.394C178.446 141.801 177.774 142.201 177.082 142.586C176.973 142.645 176.886 142.737 176.832 142.849C176.778 142.96 176.761 143.085 176.782 143.207C176.782 144.078 176.782 144.957 176.782 145.813C176.798 145.958 176.769 146.103 176.701 146.231C176.632 146.358 176.526 146.462 176.396 146.527C175.754 146.877 175.118 147.241 174.476 147.627C174.349 147.684 174.244 147.782 174.177 147.904C174.11 148.026 174.084 148.167 174.104 148.305C174.104 150.357 174.104 152.411 174.104 154.467C174.104 154.874 174.219 154.903 174.497 154.731C175.254 154.274 176.011 153.853 176.768 153.418L179.117 152.061C179.229 152.012 179.322 151.927 179.381 151.82C179.441 151.713 179.463 151.589 179.445 151.468C179.445 150.569 179.445 149.662 179.445 148.748C179.445 148.398 179.345 148.362 179.102 148.512C178.446 148.905 177.796 149.226 177.139 149.648C176.875 149.812 176.768 149.74 176.775 149.376C176.775 148.534 176.775 147.698 176.775 146.87C176.75 146.71 176.778 146.547 176.854 146.404C176.93 146.261 177.05 146.147 177.196 146.078V146.07ZM136.712 119.967C136.704 119.849 136.687 119.732 136.662 119.617L134.299 120.981C134.042 121.123 134.042 121.338 134.042 121.573C134.042 123.651 134.042 125.714 134.042 127.792C134.042 128.206 134.163 128.22 134.435 128.056C135.136 127.585 135.885 127.19 136.669 126.878C136.696 126.734 136.713 126.589 136.719 126.443L136.712 119.967ZM139.04 146.756L134.042 149.612C134.042 150.633 134.042 151.647 134.042 152.675C134.042 153.075 134.149 153.111 134.428 152.946C136.077 151.982 137.726 151.033 139.368 150.09C139.368 149.048 139.368 148.013 139.368 146.963C139.39 146.62 139.283 146.599 139.04 146.742V146.756ZM131.107 126.371C130.393 126.792 129.679 127.192 128.965 127.592C128.87 127.639 128.791 127.714 128.74 127.807C128.689 127.901 128.668 128.008 128.68 128.113C128.68 129.063 128.68 130.02 128.68 130.969C128.68 131.284 128.794 131.291 128.994 131.169C129.344 130.955 129.708 130.762 130.051 130.555C130.393 130.348 130.765 130.191 131.065 129.955C131.201 129.818 131.295 129.645 131.336 129.456C131.336 128.492 131.336 127.542 131.336 126.6C131.379 126.314 131.343 126.236 131.107 126.357V126.371ZM115.071 128.513C114.357 128.892 113.643 129.299 112.929 129.727C112.8 129.849 112.708 130.005 112.665 130.177C112.665 131.248 112.665 132.319 112.665 133.433C113.514 132.94 114.307 132.49 115.1 132.005C115.215 131.886 115.29 131.733 115.314 131.569C115.314 130.605 115.314 129.648 115.314 128.713C115.335 128.599 115.171 128.47 115.071 128.52V128.513ZM136.712 115.568C136.712 115.868 136.762 115.983 137.012 115.833C137.726 115.426 138.39 115.026 139.083 114.64C139.185 114.589 139.269 114.507 139.323 114.406C139.377 114.305 139.398 114.19 139.383 114.076C139.383 113.034 139.383 111.977 139.383 110.927L136.734 112.462C136.712 113.505 136.719 114.533 136.712 115.576V115.568ZM131.079 119.253L129.008 120.452C128.905 120.504 128.821 120.588 128.767 120.69C128.713 120.792 128.693 120.909 128.708 121.023C128.708 121.959 128.708 122.894 128.708 123.837C128.708 124.115 128.801 124.144 128.994 124.029C129.708 123.615 130.422 123.208 131.1 122.808C131.195 122.761 131.273 122.686 131.323 122.593C131.373 122.499 131.393 122.392 131.379 122.287C131.379 121.823 131.379 121.352 131.379 120.859C131.379 120.366 131.379 119.924 131.379 119.431C131.386 119.181 131.293 119.131 131.079 119.26V119.253ZM123.425 148.662V152.197L126.081 150.669V147.099L123.425 148.662ZM134.335 103.18C134.232 103.234 134.149 103.317 134.095 103.419C134.041 103.521 134.02 103.637 134.035 103.752C134.035 104.651 134.035 105.544 134.035 106.458C134.035 106.843 134.156 106.85 134.406 106.701C135.17 106.244 135.934 105.815 136.698 105.38V101.81C135.913 102.267 135.12 102.724 134.335 103.159V103.18ZM134.399 110.235C134.266 110.295 134.158 110.398 134.092 110.528C134.026 110.658 134.006 110.806 134.035 110.949C134.035 111.81 134.035 112.681 134.035 113.562C134.035 113.94 134.135 113.99 134.399 113.826C135.163 113.369 135.934 112.934 136.698 112.491V108.921C135.934 109.364 135.163 109.814 134.399 110.235ZM168.471 97.6756C167.757 98.0825 167.086 98.4824 166.393 98.8679C166.291 98.9198 166.208 99.0018 166.154 99.1027C166.101 99.2036 166.079 99.3186 166.093 99.432C166.093 100.367 166.093 101.317 166.093 102.245C166.093 102.367 166.215 102.509 166.279 102.474C167.086 102.038 167.893 101.56 168.742 101.046C168.742 99.9104 168.742 98.9036 168.742 97.8255C168.764 97.5613 168.657 97.5685 168.471 97.6756ZM134.042 160.629C134.042 161.6 134.042 162.578 134.042 163.542C134.042 163.642 134.17 163.749 134.242 163.713C135.049 163.271 135.856 162.792 136.677 162.321V158.751L134.378 160.108C134.271 160.144 134.18 160.215 134.119 160.31C134.058 160.405 134.031 160.517 134.042 160.629ZM163.166 136.353C162.816 136.517 162.452 136.746 162.109 136.946C161.767 137.145 161.395 137.36 161.053 137.552C160.956 137.599 160.876 137.674 160.824 137.767C160.772 137.86 160.749 137.967 160.76 138.074C160.76 139.023 160.76 139.987 160.76 140.93C160.76 141.044 160.917 141.158 161.003 141.115C161.717 140.73 162.431 140.316 163.145 139.873C163.268 139.742 163.352 139.578 163.387 139.402C163.387 138.438 163.387 137.481 163.387 136.546C163.409 136.453 163.259 136.339 163.166 136.381V136.353ZM136.298 144.742C136.447 144.679 136.57 144.566 136.646 144.424C136.723 144.281 136.749 144.116 136.719 143.957C136.719 142.972 136.719 141.965 136.719 140.965L139.368 139.416V135.889L136.719 137.417C136.719 138.595 136.719 139.773 136.719 140.987C135.955 141.422 135.191 141.879 134.428 142.293C134.301 142.361 134.198 142.466 134.132 142.593C134.065 142.72 134.039 142.865 134.056 143.007C134.056 144.014 134.056 145.042 134.056 146.063L126.074 150.683C126.074 151.718 126.074 152.761 126.074 153.803C126.074 154.16 126.174 154.182 126.416 154.039L134.071 149.612C134.071 148.427 134.071 147.249 134.071 146.042C134.799 145.642 135.548 145.185 136.298 144.771V144.742ZM166.55 88.0937C169.071 86.6228 171.548 85.1877 174.09 83.7311C174.169 80.3253 174.09 77.0267 174.133 73.6423C174.133 73.1282 174.012 73.064 173.64 73.2853C171.12 74.7919 168.642 76.1413 166.093 77.6907C166.093 81.0536 166.093 84.388 166.093 87.7581C166.086 88.2793 166.201 88.3293 166.55 88.1222V88.0937ZM117.998 115.583C117.998 115.99 118.084 116.075 118.398 115.89C119.612 115.176 120.826 114.462 122.04 113.748C123.253 113.034 124.417 112.363 125.61 111.699C125.76 111.636 125.884 111.524 125.962 111.381C126.04 111.238 126.067 111.073 126.038 110.913C126.038 107.7 126.038 104.487 126.038 101.253C126.038 100.867 125.952 100.789 125.66 100.953C123.232 102.381 120.804 103.783 118.377 105.158C118.25 105.226 118.147 105.331 118.081 105.458C118.015 105.585 117.988 105.73 118.006 105.872C118.02 109.171 118.02 112.384 118.013 115.611L117.998 115.583ZM125.631 165.163C123.111 166.641 120.633 168.076 118.077 169.533C118.006 172.938 118.077 176.237 118.041 179.614C118.041 180.114 118.141 180.214 118.527 179.985C121.047 178.479 123.525 177.129 126.074 175.58C126.074 172.217 126.074 168.883 126.074 165.52C126.052 165.041 125.959 164.949 125.631 165.163Z" fill="#263238"/>
<path d="M120.883 223.525C120.906 222.805 120.992 222.088 121.14 221.383C121.285 220.702 121.506 220.038 121.797 219.405C122.084 218.794 122.449 218.223 122.882 217.706C123.318 217.192 123.84 216.757 124.424 216.421C124.879 216.119 125.407 215.949 125.952 215.928C126.154 215.927 126.353 215.965 126.539 216.041C126.725 216.117 126.895 216.229 127.038 216.371C127.352 216.717 127.58 217.133 127.702 217.585C127.861 218.177 127.95 218.785 127.966 219.398C127.966 219.627 127.966 219.884 127.966 220.169C127.966 220.455 127.966 220.741 127.966 221.048C127.966 221.355 127.966 221.64 127.966 221.926C127.966 222.211 127.966 222.476 127.966 222.718C127.938 223.4 127.857 224.078 127.723 224.746C127.591 225.405 127.385 226.047 127.109 226.66L128.016 228.138C128.026 228.187 128.026 228.238 128.016 228.288C128.025 228.404 128 228.52 127.944 228.623C127.904 228.713 127.84 228.789 127.759 228.844L126.616 229.501C126.474 229.573 126.367 229.573 126.295 229.501C126.231 229.43 126.174 229.366 126.138 229.316L125.752 228.687C125.552 228.9 125.338 229.098 125.11 229.28C124.886 229.462 124.647 229.624 124.396 229.766C123.936 230.068 123.404 230.243 122.854 230.272C122.448 230.272 122.059 230.113 121.768 229.83C121.45 229.487 121.225 229.07 121.111 228.616C120.956 228.026 120.87 227.42 120.854 226.81C120.854 226.574 120.854 226.317 120.854 226.038C120.854 225.76 120.854 225.467 120.854 225.16C120.854 224.853 120.854 224.56 120.854 224.275C120.854 223.989 120.876 223.761 120.883 223.525ZM126.338 220.469C126.39 219.836 126.19 219.207 125.781 218.72C125.438 218.434 124.988 218.449 124.424 218.77C123.832 219.128 123.36 219.655 123.068 220.284C122.711 221.031 122.521 221.847 122.511 222.675C122.511 223.154 122.511 223.682 122.511 224.261C122.511 224.839 122.511 225.353 122.511 225.81C122.482 226.122 122.517 226.436 122.613 226.734C122.708 227.032 122.863 227.308 123.068 227.545C123.411 227.831 123.86 227.809 124.424 227.488C125.015 227.13 125.487 226.606 125.781 225.981C126.137 225.236 126.327 224.422 126.338 223.597C126.338 223.118 126.338 222.59 126.338 222.019C126.338 221.447 126.345 220.926 126.345 220.469H126.338Z" fill="#FAFAFA"/>
<path d="M133 211.687C134.006 211.109 134.763 211.03 135.284 211.444C135.806 211.858 136.07 212.701 136.07 213.979C136.075 214.842 135.94 215.701 135.67 216.521C135.409 217.29 135.004 218.002 134.478 218.62L136.141 222.24C136.167 222.298 136.179 222.362 136.177 222.426C136.177 222.54 136.15 222.652 136.098 222.754C136.064 222.849 135.999 222.93 135.913 222.982L134.892 223.575C134.727 223.668 134.613 223.682 134.535 223.575C134.465 223.511 134.41 223.433 134.37 223.347L132.771 219.962L131.172 220.89V225.21C131.169 225.352 131.135 225.491 131.072 225.617C131.027 225.732 130.947 225.829 130.843 225.896L129.872 226.46C129.841 226.488 129.8 226.503 129.758 226.503C129.716 226.503 129.675 226.488 129.644 226.46C129.608 226.419 129.58 226.372 129.563 226.32C129.546 226.268 129.539 226.214 129.544 226.16V214.172C129.546 214.03 129.581 213.891 129.644 213.765C129.69 213.649 129.77 213.55 129.872 213.479L133 211.687ZM131.193 218.57L132.935 217.563C133.374 217.32 133.751 216.977 134.035 216.564C134.33 216.066 134.472 215.492 134.442 214.914C134.442 214.2 134.306 213.836 134.035 213.765C133.646 213.712 133.252 213.811 132.935 214.043L131.193 215.05V218.57Z" fill="#FAFAFA"/>
<path d="M145.559 213.301C145.568 213.148 145.612 212.999 145.687 212.865C145.738 212.764 145.814 212.678 145.909 212.615L146.887 212.051C146.921 212.025 146.962 212.011 147.005 212.011C147.047 212.011 147.089 212.025 147.122 212.051C147.159 212.092 147.186 212.142 147.201 212.195C147.215 212.248 147.218 212.304 147.208 212.358C147.179 212.919 147.097 213.476 146.965 214.022C146.817 214.625 146.601 215.209 146.323 215.764C146.024 216.352 145.655 216.901 145.223 217.399C144.766 217.922 144.226 218.366 143.624 218.713C143.184 218.998 142.676 219.16 142.153 219.184C141.749 219.183 141.36 219.027 141.068 218.748C140.726 218.412 140.48 217.991 140.354 217.528C140.176 216.914 140.078 216.281 140.061 215.643C140.061 215.178 140.061 214.664 140.061 214.1C140.061 213.536 140.061 213.008 140.061 212.522C140.09 211.772 140.188 211.027 140.354 210.295C140.515 209.596 140.754 208.919 141.068 208.274C141.355 207.668 141.72 207.101 142.153 206.589C142.568 206.091 143.065 205.668 143.624 205.34C144.103 205.028 144.653 204.844 145.223 204.804C145.622 204.796 146.011 204.927 146.323 205.175C146.626 205.445 146.848 205.793 146.965 206.182C147.105 206.627 147.187 207.087 147.208 207.553C147.216 207.696 147.186 207.839 147.122 207.967C147.068 208.076 146.987 208.17 146.887 208.238L145.909 208.802C145.874 208.823 145.835 208.834 145.794 208.834C145.754 208.834 145.715 208.823 145.68 208.802C145.609 208.767 145.566 208.667 145.552 208.517C145.528 208.3 145.47 208.088 145.38 207.889C145.301 207.716 145.175 207.57 145.016 207.467C144.841 207.368 144.638 207.325 144.438 207.346C144.149 207.389 143.872 207.491 143.624 207.646C143.31 207.833 143.031 208.074 142.803 208.36C142.567 208.645 142.37 208.959 142.217 209.295C142.054 209.646 141.934 210.015 141.86 210.395C141.775 210.782 141.725 211.176 141.71 211.573C141.71 212.051 141.71 212.572 141.71 213.144C141.71 213.715 141.71 214.229 141.71 214.686C141.718 215.031 141.769 215.374 141.86 215.707C141.92 215.958 142.043 216.189 142.217 216.378C142.373 216.535 142.582 216.627 142.803 216.635C143.096 216.632 143.381 216.543 143.624 216.378C143.927 216.208 144.202 215.991 144.438 215.735C144.661 215.493 144.858 215.228 145.023 214.943C145.175 214.675 145.299 214.393 145.395 214.1C145.476 213.84 145.531 213.572 145.559 213.301Z" fill="#FAFAFA"/>
<path d="M148.329 207.674C148.358 206.966 148.444 206.262 148.586 205.568C148.733 204.889 148.953 204.228 149.243 203.597C149.53 202.986 149.895 202.415 150.328 201.898C150.762 201.379 151.284 200.942 151.871 200.606C152.328 200.31 152.855 200.14 153.399 200.113C153.6 200.111 153.801 200.149 153.987 200.227C154.174 200.304 154.343 200.418 154.484 200.563C154.805 200.904 155.034 201.322 155.148 201.777C155.312 202.368 155.4 202.977 155.412 203.59C155.412 203.819 155.412 204.076 155.412 204.354C155.412 204.633 155.412 204.933 155.412 205.232C155.412 205.532 155.412 205.832 155.412 206.118C155.412 206.403 155.412 206.668 155.412 206.91C155.39 207.616 155.304 208.319 155.155 209.01C155.009 209.691 154.789 210.354 154.498 210.987C154.21 211.597 153.843 212.166 153.406 212.679C152.972 213.192 152.453 213.624 151.871 213.958C151.41 214.258 150.878 214.431 150.328 214.457C150.127 214.459 149.928 214.42 149.742 214.344C149.555 214.268 149.386 214.156 149.243 214.015C148.922 213.674 148.696 213.256 148.586 212.801C148.434 212.21 148.347 211.604 148.329 210.994C148.329 210.766 148.329 210.509 148.329 210.23C148.329 209.952 148.329 209.652 148.329 209.352C148.329 209.052 148.329 208.752 148.329 208.467C148.329 208.181 148.322 207.917 148.329 207.674ZM153.784 204.618C153.812 204.306 153.777 203.99 153.682 203.691C153.586 203.392 153.431 203.115 153.227 202.876C152.884 202.583 152.435 202.598 151.871 202.926C151.277 203.283 150.804 203.811 150.514 204.44C150.16 205.188 149.97 206.004 149.957 206.832C149.957 207.31 149.957 207.839 149.957 208.41C149.957 208.981 149.957 209.502 149.957 209.966C149.93 210.278 149.965 210.592 150.061 210.89C150.157 211.188 150.311 211.464 150.514 211.701C150.857 211.987 151.306 211.965 151.871 211.637C152.462 211.284 152.935 210.762 153.227 210.138C153.584 209.393 153.774 208.579 153.784 207.753C153.784 207.274 153.784 206.746 153.784 206.175C153.784 205.604 153.798 205.083 153.784 204.626V204.618Z" fill="#FAFAFA"/>
<path d="M160.303 195.922C160.769 195.623 161.301 195.441 161.852 195.394C162.052 195.38 162.253 195.408 162.441 195.477C162.629 195.546 162.801 195.654 162.945 195.793C163.277 196.13 163.509 196.553 163.616 197.014C163.789 197.65 163.885 198.305 163.901 198.964C163.94 199.863 163.94 200.777 163.901 201.705C163.874 202.472 163.779 203.234 163.616 203.983C163.473 204.673 163.251 205.344 162.952 205.982C162.67 206.581 162.307 207.138 161.874 207.639C161.439 208.129 160.928 208.547 160.36 208.874L157.325 210.623C157.293 210.65 157.253 210.665 157.211 210.665C157.169 210.665 157.129 210.65 157.097 210.623C157.062 210.582 157.036 210.534 157.021 210.483C157.005 210.431 156.999 210.377 157.004 210.323V198.328C157.004 198.187 157.036 198.048 157.097 197.921C157.144 197.808 157.223 197.711 157.325 197.643L160.303 195.922ZM162.274 199.906C162.265 199.561 162.215 199.218 162.124 198.885C162.061 198.633 161.933 198.401 161.752 198.214C161.669 198.136 161.572 198.074 161.465 198.034C161.359 197.994 161.245 197.975 161.131 197.978C160.813 198.001 160.506 198.104 160.239 198.278L158.625 199.206V207.553L160.303 206.589C160.625 206.399 160.915 206.158 161.16 205.875C161.397 205.589 161.599 205.275 161.759 204.94C161.921 204.588 162.043 204.219 162.124 203.84C162.209 203.446 162.26 203.044 162.274 202.641C162.312 201.712 162.312 200.801 162.274 199.906Z" fill="#FAFAFA"/>
<path d="M171.091 200.342C171.123 200.313 171.164 200.298 171.206 200.298C171.248 200.298 171.289 200.313 171.32 200.342C171.356 200.381 171.384 200.427 171.401 200.477C171.418 200.528 171.425 200.581 171.42 200.634V201.948C171.417 202.092 171.383 202.233 171.32 202.362C171.275 202.477 171.195 202.575 171.091 202.641L165.808 205.689C165.776 205.718 165.736 205.733 165.694 205.733C165.651 205.733 165.611 205.718 165.579 205.689C165.543 205.649 165.516 205.601 165.498 205.55C165.481 205.498 165.475 205.444 165.479 205.39V193.437C165.482 193.296 165.516 193.157 165.579 193.03C165.626 192.915 165.705 192.815 165.808 192.745L170.999 189.753C171.03 189.725 171.071 189.709 171.113 189.709C171.155 189.709 171.196 189.725 171.227 189.753C171.262 189.794 171.288 189.842 171.304 189.894C171.32 189.945 171.325 189.999 171.32 190.053V191.367C171.32 191.507 171.288 191.647 171.227 191.774C171.18 191.887 171.101 191.984 170.999 192.052L167.107 194.301V197.25L170.734 195.158C170.766 195.13 170.807 195.114 170.849 195.114C170.891 195.114 170.932 195.13 170.963 195.158C170.997 195.199 171.023 195.247 171.039 195.299C171.055 195.35 171.061 195.404 171.056 195.458V196.772C171.056 196.912 171.024 197.052 170.963 197.179C170.916 197.292 170.837 197.389 170.734 197.457L167.107 199.549V202.633L171.091 200.342Z" fill="#FAFAFA"/>
<path d="M258.068 299.559C258.132 303.086 258.411 308.22 258.068 309.683C257.725 311.147 251.842 312.539 247.244 312.782C242.646 313.025 237.112 312.282 236.784 315.509C236.455 318.737 239.326 320.936 241.439 321.935C245.009 323.592 249.029 323.235 252.549 322.714C256.069 322.193 257.94 322.578 261.66 323.485C265.38 324.392 267.472 323.835 269.057 323.035C271.413 321.857 270.785 317.837 269.956 315.217C269.128 312.596 269.242 310.219 269.528 306.57C269.813 302.922 270.87 297.638 270.87 297.638L258.068 299.559Z" fill="#FFBDA7"/>
<path d="M269.956 315.195C269.956 315.195 269.956 316.309 267.543 316.816C265.13 317.323 261.117 317.187 258.332 317.373C254.134 317.644 250.942 318.123 246.13 317.373C241.903 316.709 242.082 313.36 245.866 312.825C241.582 312.896 237.084 312.604 236.784 315.509C236.448 318.772 239.326 320.936 241.439 321.935C245.009 323.592 249.029 323.235 252.549 322.714C256.069 322.193 257.94 322.578 261.66 323.485C265.379 324.392 267.471 323.835 269.057 323.035C271.413 321.836 270.784 317.816 269.956 315.195Z" fill="#455A64"/>
<path d="M301.743 290.805C303.714 293.661 306.977 299.073 307.455 300.423C307.934 301.772 308.312 306.806 307.455 308.277C306.22 309.176 304.285 309.705 302.629 310.511C300.244 311.69 299.73 313.646 301.294 315.138C303.436 317.23 307.006 317.473 309.098 317.352C312.182 316.88 312.396 313.425 312.839 310.369C313.282 307.313 312.732 301.308 315.074 297.617C317.416 293.925 321.5 293.575 322.035 294.803C321.785 292.947 320.757 292.89 318.537 291.633C316.316 290.377 314.374 290.412 313.146 287.492C311.718 284.043 310.361 279.917 310.361 279.917L301.743 290.805Z" fill="#FFBDA7"/>
<path d="M306.085 317.43C308.298 317.801 309.855 317.794 313.789 315.866C317.18 314.203 318.073 313.503 318.558 312.575C319.379 311.147 318.494 307.513 319.208 304.4C319.734 302.212 320.485 300.085 321.45 298.052C322.214 296.167 322.164 295.353 322.036 294.803C321.771 293.625 319.372 293.475 317.088 294.803C314.803 296.132 313.325 298.659 312.575 304.678C311.825 310.697 312.982 317.28 306.085 317.43Z" fill="#263238"/>
<path d="M322.014 294.803C321.764 292.947 321.122 292.661 318.894 291.412C318.073 290.948 317.259 290.612 316.502 290.22C314.36 289.813 310.954 291.505 310.79 296.024C310.626 300.544 311.39 306.27 310.033 308.398C308.876 310.204 306.97 310.083 307.413 308.291C304.357 309.412 303.307 309.426 301.587 310.369C299.602 311.454 298.93 314.296 300.765 315.438C303.192 317.091 306.148 317.778 309.055 317.366C312.139 316.895 312.354 313.439 312.796 310.383C313.239 307.327 312.732 301.308 315.074 297.617C317.416 293.925 321.5 293.575 322.014 294.803Z" fill="#455A64"/>
<path d="M302.329 292.597C302.329 292.597 291.126 276.139 285.136 265.465C280.709 257.611 280.309 256.055 279.224 250.9C276.889 239.818 276.368 237.219 276.368 237.219L272.891 259.603C273.448 262.031 274.569 266.843 274.612 269.671C274.581 275.197 274.132 280.713 273.269 286.171C272.463 292.323 271.326 298.427 269.863 304.457C268.992 305.064 266.465 305.171 264.266 305.106C262.131 304.979 260.02 304.586 257.982 303.936C257.982 303.936 256.155 277.56 255.726 270.299C255.219 261.595 255.012 258.161 254.769 253.391C254.334 245.78 253.299 234.749 253.591 220.762C254.184 192.916 260.382 180.228 260.382 180.228L291.798 175.865C294.404 185.24 299.823 186.333 300.366 199.127C300.501 202.033 298.938 207.803 298.938 212.308C298.773 226.931 297.467 249.9 297.467 249.9C300.915 253.084 303.443 255.955 305.82 263.337C307.248 267.814 310.483 279.153 311.832 283.758C307.841 283.765 302.279 290.805 302.329 292.597Z" fill="#455A64"/>
<path d="M270.606 196.279L271.434 196.15C272.148 201.191 273.369 206.91 274.033 207.367C275.19 208.152 279.46 208.795 280.423 208.552C281.387 208.31 282.23 207.531 283.936 205.211C285.136 203.583 285.007 202.569 284.722 200.348C284.622 199.52 284.5 198.578 284.422 197.392L285.264 197.335C285.336 198.492 285.457 199.42 285.557 200.241C285.843 202.476 286.014 203.811 284.607 205.732C282.765 208.238 281.83 209.095 280.616 209.388C280.44 209.427 280.261 209.451 280.081 209.459C278.389 209.53 274.711 208.859 273.569 208.081C272.248 207.21 270.942 198.828 270.606 196.279Z" fill="#37474F"/>
<path d="M257.711 195.536L258.518 195.772C256.14 204.34 256.662 212.144 260.917 214.521C261.695 208.752 262.788 202.79 264.294 196.407L265.108 196.607C260.267 217.156 259.682 233.342 260.303 252.799C260.781 267.621 261.731 293.097 262.159 304.921L261.31 304.778C260.867 292.883 259.939 267.579 259.468 252.827C259.039 239.661 259.182 227.973 260.803 215.428C255.926 212.951 255.155 204.704 257.711 195.536Z" fill="#37474F"/>
<path d="M300.008 203.204C299.485 203.705 298.852 204.077 298.159 204.29C296.831 204.354 294.639 202.462 294.011 201.041C293.71 200.221 293.523 199.363 293.454 198.492C293.325 197.201 293.086 195.923 292.74 194.672L293.547 194.429C293.892 195.726 294.131 197.049 294.261 198.385C294.313 199.182 294.469 199.97 294.725 200.727C295.253 201.926 297.174 203.504 298.059 203.469C298.86 203.058 299.571 202.493 300.151 201.805C300.151 202.191 300.073 202.776 300.008 203.204Z" fill="#37474F"/>
<path d="M304.964 288.17C305.164 287.942 305.356 287.721 305.563 287.506C300.201 278.153 288.684 257.69 287.656 252.727C286.335 246.366 284.086 225.053 283.979 213.586H283.137C283.229 225.096 285.507 246.509 286.835 252.899C287.906 258.104 299.637 278.888 304.964 288.17Z" fill="#37474F"/>
<path d="M288.534 192.937C290.676 196.329 291.962 202.276 289.206 208.795L288.456 208.488C291.076 202.269 289.884 196.636 287.849 193.43L288.534 192.937Z" fill="#37474F"/>
<path d="M276.318 237.226L279.731 213.757C279.731 213.757 288.563 212.522 289.784 204.24C289.998 209.152 288.035 213.379 282.551 215.664L278.167 237.326L279.195 250.892L276.318 237.226Z" fill="#37474F"/>
<path d="M218.434 130.905V106.693C218.475 106.468 218.447 106.236 218.354 106.027C218.261 105.818 218.107 105.642 217.913 105.522C217.713 105.409 217.482 105.361 217.253 105.384C217.024 105.407 216.808 105.5 216.635 105.651L206.053 111.762C205.842 111.909 205.667 112.103 205.543 112.328C205.42 112.554 205.35 112.805 205.339 113.062V137.274C205.295 137.498 205.322 137.731 205.417 137.94C205.512 138.148 205.669 138.322 205.867 138.437C206.065 138.552 206.294 138.602 206.522 138.58C206.75 138.558 206.965 138.466 207.138 138.316L217.727 132.204C217.952 132.073 218.137 131.882 218.262 131.653C218.387 131.424 218.446 131.165 218.434 130.905Z" fill="#37474F"/>
<path d="M217.77 131.148L206.889 137.431V113.112L205.525 112.327C205.394 112.542 205.32 112.788 205.311 113.041V137.252C205.275 137.478 205.306 137.709 205.4 137.917C205.494 138.125 205.646 138.301 205.839 138.423C206.04 138.53 206.268 138.575 206.494 138.552C206.72 138.529 206.935 138.439 207.11 138.295L217.699 132.183C217.989 132.026 218.216 131.774 218.341 131.469H218.298L217.77 131.148Z" fill="#263238"/>
<path d="M217.67 106.472L207.06 112.598C206.908 112.699 206.781 112.835 206.689 112.993C206.598 113.152 206.544 113.329 206.532 113.512V137.516C206.532 138.03 206.896 138.23 207.346 137.98L217.677 132.019C217.85 131.904 217.993 131.751 218.096 131.571C218.199 131.391 218.259 131.19 218.27 130.983V106.814C218.263 106.436 217.998 106.286 217.67 106.472Z" fill="#455A64"/>
<path d="M217.77 108.028V130.376C217.759 130.573 217.702 130.764 217.602 130.934C217.503 131.104 217.365 131.248 217.199 131.355L207.631 136.881C207.317 137.067 207.067 136.881 207.067 136.56V114.033C207.085 113.708 207.228 113.404 207.467 113.183L207.517 113.133L207.631 113.055L210.323 111.505L210.501 111.398C210.594 111.348 210.673 111.398 210.673 111.505C210.673 111.612 210.758 111.655 210.866 111.598L214 109.785C214.052 109.751 214.096 109.706 214.128 109.653C214.161 109.599 214.18 109.54 214.186 109.478C214.189 109.42 214.205 109.364 214.232 109.314C214.259 109.263 214.297 109.219 214.343 109.185L216.977 107.664H217.027C217.427 107.393 217.77 107.578 217.77 108.028Z" fill="#263238"/>
<path d="M216.977 107.65V129.848C216.966 130.045 216.908 130.236 216.809 130.406C216.71 130.576 216.572 130.72 216.406 130.826L207.06 136.231V114.033C207.078 113.709 207.221 113.404 207.46 113.183L207.51 113.133L207.624 113.055L210.316 111.505L210.494 111.398C210.587 111.348 210.666 111.398 210.666 111.505C210.666 111.612 210.751 111.655 210.858 111.598L213.993 109.785C214.045 109.751 214.089 109.706 214.121 109.653C214.154 109.599 214.173 109.54 214.179 109.478C214.182 109.42 214.197 109.364 214.225 109.314C214.252 109.263 214.29 109.219 214.336 109.185L216.977 107.65Z" fill="white"/>
<path d="M211.344 110.67L212.772 109.842C212.858 109.792 212.922 109.842 212.922 109.92C212.919 109.972 212.904 110.022 212.878 110.067C212.852 110.111 212.815 110.149 212.772 110.177L211.344 111.006C211.258 111.056 211.194 111.006 211.194 110.927C211.197 110.875 211.212 110.825 211.238 110.781C211.264 110.736 211.301 110.698 211.344 110.67Z" fill="#263238"/>
<path d="M213.486 109.313C213.586 109.263 213.664 109.313 213.664 109.413C213.662 109.475 213.644 109.535 213.613 109.589C213.582 109.642 213.538 109.687 213.486 109.72C213.393 109.777 213.315 109.72 213.315 109.62C213.318 109.56 213.335 109.5 213.365 109.447C213.394 109.394 213.436 109.348 213.486 109.313Z" fill="#263238"/>
<path d="M206.282 116.139C206.28 116.04 206.254 115.943 206.207 115.856C206.159 115.77 206.092 115.695 206.01 115.639C205.981 115.623 205.948 115.614 205.914 115.614C205.88 115.614 205.847 115.623 205.818 115.639L205.611 115.761C205.581 115.783 205.557 115.812 205.542 115.846C205.527 115.88 205.521 115.917 205.525 115.954V118.046C205.528 118.145 205.555 118.243 205.603 118.329C205.652 118.416 205.72 118.491 205.803 118.545C205.831 118.56 205.861 118.568 205.893 118.568C205.924 118.568 205.954 118.56 205.982 118.545L206.196 118.424C206.227 118.401 206.251 118.371 206.266 118.336C206.281 118.301 206.287 118.262 206.282 118.224V116.139Z" fill="#455A64"/>
<path d="M206.075 116.254V118.346C206.075 118.531 205.953 118.61 205.803 118.524C205.72 118.469 205.652 118.395 205.603 118.308C205.555 118.221 205.528 118.124 205.525 118.024V115.932C205.525 115.747 205.646 115.668 205.803 115.754C205.884 115.81 205.951 115.885 205.998 115.972C206.045 116.058 206.071 116.155 206.075 116.254Z" fill="#37474F"/>
<path d="M206.282 119.795C206.278 119.695 206.252 119.598 206.205 119.51C206.158 119.422 206.091 119.346 206.01 119.288C205.981 119.272 205.948 119.264 205.914 119.264C205.88 119.264 205.847 119.272 205.818 119.288L205.611 119.409C205.581 119.431 205.557 119.461 205.542 119.495C205.527 119.528 205.521 119.565 205.525 119.602V121.694C205.528 121.794 205.555 121.891 205.603 121.978C205.652 122.065 205.72 122.139 205.803 122.194C205.831 122.209 205.861 122.217 205.893 122.217C205.924 122.217 205.954 122.209 205.982 122.194L206.196 122.073C206.227 122.05 206.251 122.019 206.266 121.984C206.281 121.949 206.287 121.911 206.282 121.873V119.795Z" fill="#455A64"/>
<path d="M206.075 119.909V122.001C206.075 122.187 205.953 122.265 205.803 122.18C205.72 122.125 205.652 122.051 205.603 121.964C205.555 121.877 205.528 121.779 205.525 121.68V119.588C205.525 119.402 205.646 119.324 205.803 119.409C205.884 119.466 205.951 119.54 205.998 119.627C206.045 119.714 206.071 119.811 206.075 119.909Z" fill="#37474F"/>
<path d="M294.432 137.959C300.144 139.316 303.243 140.901 305.599 148.669C307.827 156.023 311.554 168.44 312.532 173.709C313.011 176.272 313.246 178.707 309.676 180.228C301.608 183.641 293.833 186.033 293.833 186.033L290.684 176.508L299.309 172.224L297.167 165.284L294.432 137.959Z" fill="#FFBDA7"/>
<path d="M299.295 172.21C300.023 173.863 301.279 175.228 302.865 176.094C300.765 176.351 298.716 174.152 298.181 172.774L299.295 172.21Z" fill="#F0997A"/>
<path d="M266.665 109.506C265.665 108.171 265.808 106.172 266.522 104.672C267.236 103.173 268.621 101.624 272.448 99.9743C277.003 98.0108 289.42 96.7113 294.182 105.022C294.896 106.265 281.909 128.242 282.166 132.911C279.31 129.455 269.963 117.346 269.963 117.346C267.629 116.154 266.236 115.204 265.886 112.869C265.785 111.694 266.057 110.517 266.665 109.506Z" fill="#263238"/>
<path d="M268.021 115.947C268.021 115.947 264.394 121.03 264.723 121.487C265.435 122.142 266.205 122.732 267.022 123.251L268.021 115.947Z" fill="#F0997A"/>
<path d="M272.748 106.55C270.492 107.428 268.464 108.964 267.464 113.69C267.193 114.925 268.05 116.71 267.464 118.345C265.058 125.336 266.886 131.44 268.178 132.847C269.057 133.796 273.89 134.539 276.539 134.011C279.817 133.339 287.021 130.683 290.705 125.9C295.046 120.266 296.524 112.384 292.39 108.885C286.607 103.973 275.161 105.615 272.748 106.55Z" fill="#FFBDA7"/>
<path d="M288.356 129.791L288.77 136.895C292.711 139.201 284.55 142.207 275.918 138.502L275.29 132.076L288.356 129.791Z" fill="#FFBDA7"/>
<path d="M275.561 135.017C275.718 136.66 275.882 139.116 273.334 139.794C270.942 140.437 267.072 140.829 263.295 142.243C263.295 142.243 276.896 144.385 284.001 143.214C291.105 142.043 292.376 137.445 292.376 137.445C289.805 137.102 288.734 136.674 288.635 135.017H275.561Z" fill="#FFBDA7"/>
<path d="M268.464 133.061C269.556 133.775 272.034 134.418 275.483 134.182L275.326 132.404C274.243 132.745 273.132 132.984 272.005 133.118C270.829 133.274 269.635 133.255 268.464 133.061Z" fill="#F0997A"/>
<path d="M269.342 108.878C269.007 111.969 270.884 113.09 272.198 113.797C271.584 114.901 271.295 116.156 271.363 117.417C271.563 119.01 272.077 120.345 273.583 120.987C274.504 121.373 274.819 120.987 275.204 120.273C275.761 119.245 276.482 117.66 278.739 118.131C281.33 118.681 281.744 122.665 280.031 125.136C279.698 125.659 279.244 126.094 278.707 126.403C278.17 126.713 277.566 126.888 276.946 126.913C276.607 126.884 276.279 126.783 275.982 126.617C275.685 126.451 275.427 126.223 275.226 125.95C275.226 125.95 275.154 129.398 279.431 131.747C279.431 131.747 283.715 134.603 288.385 133.554C290.613 131.418 292.725 129.163 294.711 126.799C300.037 120.173 301.137 107.578 293.09 104.708C292.704 104.572 286.086 102.895 282.38 103.43C271.12 105.015 269.399 108.342 269.342 108.878Z" fill="#263238"/>
<path d="M294.168 105.022C295.439 105.022 299.28 106.986 299.273 115.525C299.273 121.287 297.845 129.006 296.003 132.618C291.062 138.066 276.725 139.109 270.427 136.824C274.526 134.946 275.261 129.855 275.24 125.914C277.11 128.77 280.538 129.42 284.679 127.342C288.82 125.264 294.168 105.022 294.168 105.022Z" fill="#263238"/>
<path d="M299.973 145.028C298.788 139.259 295.689 138.009 294.261 137.759C292.04 137.366 290.691 137.138 290.691 137.138C290.734 137.852 291.184 139.444 284.808 140.244C280.702 140.758 273.633 139.708 273.633 139.708L267.315 140.565C264.98 141.993 259.253 147.52 256.555 153.896C254.413 158.936 255.219 164.07 259.025 167.819C259.318 170.982 258.804 177.25 258.804 177.25C256.612 188.674 255.391 193.494 255.391 193.494C255.391 193.494 258.382 198.171 277.753 197.735C292.747 197.4 299.673 190.695 299.673 190.695C299.237 188.453 297.674 183.655 294.839 176.194C295.196 168.897 302.536 157.494 299.973 145.028Z" fill="#821655"/>
<path d="M235.106 148.598C235.106 148.598 220.626 139.708 219.755 138.516C218.991 137.495 219.041 136.224 218.87 135.024C218.653 133.651 218.24 132.317 217.641 131.062C217.263 130.234 216.742 129.455 216.413 128.613C216.085 127.77 216.142 126.978 215.856 126.192C215.571 125.407 214.771 125.657 214.271 126.192C213.663 126.975 213.381 127.963 213.486 128.948C213.486 129.384 213.529 129.819 213.557 130.255C213.628 130.655 213.657 131.062 213.643 131.469C213.631 131.681 213.551 131.884 213.415 132.047C213.086 132.34 212.472 131.883 212.201 131.662C210.41 130.188 208.934 128.369 207.86 126.314C207.403 125.428 207.146 124.507 206.596 123.65C206.132 122.851 205.546 122.129 204.861 121.508C204.411 121.076 203.846 120.781 203.233 120.659C202.248 120.716 202.79 122.422 202.869 122.965C203.001 123.574 202.959 124.207 202.747 124.793C202.463 125.479 202.463 126.249 202.747 126.935C202.962 127.649 203.383 128.506 203.247 129.263C203.181 129.532 203.098 129.797 202.997 130.055C202.825 130.883 202.914 131.744 203.254 132.518C203.593 133.234 203.659 134.049 203.44 134.81C203.083 136.588 204.482 138.38 205.582 139.665C206.858 141.074 208.296 142.328 209.866 143.4C210.694 143.992 211.48 144.642 212.322 145.213C213.165 145.784 213.886 146.156 214.607 146.72C216.306 148.069 222.789 154.367 230.315 160.464C232.807 162.478 233.571 163.178 238.397 162.306C247.08 160.743 249.036 160.307 254.227 159.343C262.145 157.872 263.123 157.63 263.123 157.63C268.057 155.488 268.75 149.569 268.878 146.613C269.007 144.487 268.465 142.374 267.329 140.572C262.809 140.779 258.911 141.836 251.678 143.949C243.131 146.441 235.106 148.598 235.106 148.598Z" fill="#FFBDA7"/>
</g>
<path d="M167.062 296.084C164.577 288.37 160.143 281.65 152.782 277.924C142.94 272.931 130.515 272.853 119.104 276.752C112.603 278.967 106.594 282.69 100.735 286.476C95.5287 289.843 89.4168 294.981 83.3858 296.084C75.2217 297.579 57.9697 285.774 43.4151 289.104C28.8605 292.433 22.3181 310.877 24.273 322.33C26.2279 333.783 39.7348 333.732 43.3949 343.132C47.0549 352.532 63.5943 360.451 85.9956 355.045C108.397 349.639 120.058 346.525 130.948 350.782C141.837 355.038 157.432 356.207 165.147 338.168C168.236 330.946 169.873 323.292 169.859 315.843C169.844 309.309 169.094 302.366 167.062 296.084Z" fill="#821655"/>
<path d="M109.525 281.124C109.239 281.052 108.941 281.036 108.648 281.079C107.833 281.222 107.064 281.555 106.402 282.052C105.74 282.548 105.205 283.193 104.839 283.936C104.438 284.888 104.653 285.65 105.31 285.975C105.363 286.003 105.419 286.026 105.475 286.046C113.52 289.434 126.105 289.098 137.768 277.665L133.558 273.365C124.842 281.886 115.775 282.978 109.525 281.124Z" fill="#581182"/>
<path d="M146.795 276.287C146.821 276.496 146.793 276.708 146.715 276.903C146.637 277.099 146.511 277.271 146.349 277.405C145.17 278.408 143.706 279.016 142.163 279.144C140.62 279.271 139.076 278.912 137.748 278.117C137.46 277.95 137.251 277.675 137.165 277.354C137.08 277.032 137.125 276.69 137.292 276.402C137.459 276.115 137.733 275.905 138.055 275.819C138.376 275.734 138.718 275.779 139.006 275.946C139.892 276.479 140.923 276.72 141.954 276.636C142.984 276.551 143.962 276.145 144.75 275.475C144.924 275.333 145.132 275.24 145.354 275.205C145.576 275.171 145.803 275.196 146.011 275.279C146.22 275.362 146.403 275.499 146.541 275.676C146.678 275.854 146.766 276.064 146.795 276.287Z" fill="#581182"/>
<path d="M135.663 281.274C138.857 281.274 141.447 278.685 141.447 275.49C141.447 272.296 138.857 269.706 135.663 269.706C132.469 269.706 129.879 272.296 129.879 275.49C129.879 278.685 132.469 281.274 135.663 281.274Z" fill="white"/>
<path opacity="0.2" d="M138.846 270.664C139.693 271.3 140.791 274.257 138.345 276.593C135.498 279.289 130.36 277.731 129.974 274.588C129.811 275.615 129.928 276.666 130.312 277.633C130.696 278.599 131.334 279.443 132.157 280.078C132.981 280.712 133.96 281.113 134.992 281.238C136.025 281.362 137.071 281.207 138.022 280.787C138.973 280.367 139.794 279.699 140.397 278.852C141 278.005 141.364 277.012 141.451 275.976C141.537 274.94 141.343 273.9 140.888 272.965C140.433 272.03 139.734 271.235 138.866 270.664H138.846Z" fill="black"/>
<path opacity="0.3" d="M131.418 272.523C131.377 272.57 131.34 272.62 131.308 272.673C131.107 272.969 130.956 273.296 130.862 273.641C130.72 274.018 130.698 274.428 130.796 274.819C130.857 275.017 130.988 275.187 131.166 275.295C131.343 275.403 131.554 275.442 131.759 275.405C132.145 275.285 132.31 274.844 132.435 274.463C132.763 273.477 133.191 272.528 133.713 271.631C133.745 271.589 133.767 271.541 133.779 271.49C133.791 271.439 133.793 271.387 133.784 271.335C133.738 271.205 133.568 271.175 133.428 271.18C132.601 271.235 131.959 271.897 131.418 272.523Z" fill="white"/>
<path d="M141.788 266.218C141.824 266.524 141.747 266.832 141.57 267.085C141.394 267.337 141.13 267.516 140.831 267.586C139.819 267.805 138.902 268.335 138.208 269.103C137.515 269.872 137.08 270.838 136.966 271.866C136.924 272.199 136.752 272.501 136.488 272.706C136.223 272.912 135.888 273.003 135.555 272.962C135.223 272.92 134.921 272.748 134.716 272.483C134.51 272.218 134.418 271.883 134.46 271.551C134.634 270.012 135.286 268.566 136.324 267.417C137.363 266.268 138.735 265.473 140.249 265.145C140.419 265.104 140.596 265.1 140.768 265.134C140.94 265.167 141.103 265.237 141.246 265.339C141.388 265.44 141.507 265.571 141.595 265.723C141.682 265.875 141.736 266.044 141.753 266.218H141.788Z" fill="#581182"/>
<path d="M51.4202 275.475C51.4202 297.027 60.8981 342.025 83.297 342.025C105.696 342.025 115.164 297.002 115.164 275.475H51.4202Z" fill="#9E15EF"/>
<path opacity="0.8" d="M51.4202 275.475C51.4202 297.027 60.898 342.025 83.297 342.025C105.696 342.025 115.164 297.002 115.164 275.475H51.4202Z" fill="#461066"/>
<path opacity="0.2" d="M81.1869 332.954C71.4585 324.142 69.609 298.37 72.3556 292.762V275.475H51.4202C51.4202 297.027 60.898 342.025 83.297 342.025C90.8151 342.025 96.8797 336.943 101.616 329.38C101.631 329.385 90.9103 341.77 81.1869 332.954Z" fill="#461066"/>
<path d="M105.836 288.491C93.3863 295.679 73.2027 295.679 60.7527 288.491C54.5277 284.898 51.4202 280.186 51.4202 275.46C51.4202 270.734 54.5277 266.042 60.7527 262.429C73.2027 255.236 93.3863 255.241 105.836 262.429C112.061 266.022 115.174 270.729 115.174 275.46C115.174 280.192 112.061 284.898 105.836 288.491Z" fill="#461066"/>
<path opacity="0.6" d="M105.836 288.491C93.3863 295.679 73.2027 295.679 60.7527 288.491C54.5277 284.898 51.4202 280.186 51.4202 275.46C51.4202 270.734 54.5277 266.042 60.7527 262.429C73.2027 255.236 93.3863 255.241 105.836 262.429C112.061 266.022 115.174 270.729 115.174 275.46C115.174 280.192 112.061 284.898 105.836 288.491Z" fill="#461066"/>
<path opacity="0.3" d="M106.182 279.49C107.954 277.799 109.299 275.711 110.106 273.398C110.913 271.085 111.159 268.614 110.823 266.188C109.318 264.738 107.634 263.487 105.811 262.464C93.3612 255.277 73.1776 255.277 60.7276 262.464C54.5026 266.057 51.3951 270.764 51.3951 275.495C51.3951 280.227 54.5026 284.918 60.7276 288.527C71.3382 294.646 87.5572 295.543 99.8218 291.238C87.2916 295.077 71.0274 291.654 69.6441 284.873C77.1872 288 96.3534 289.293 106.182 279.49Z" fill="#581182"/>
<path d="M52.167 289.283C49.6421 290.871 47.831 293.376 47.1142 296.271C46.3974 299.167 46.8308 302.227 48.3232 304.81C49.8155 307.392 52.2508 309.296 55.1173 310.12C57.9837 310.945 61.0582 310.626 63.6947 309.231C65.1683 308.379 66.0805 306.555 66.0805 303.959C66.0805 298.761 62.4367 292.431 57.9409 289.85C55.6804 288.552 53.6405 288.431 52.167 289.283Z" fill="white"/>
<path d="M57.3295 307.888C51.4353 308.424 47.1851 303.703 46.5034 297.809C46.2382 299.935 46.5709 302.093 47.4642 304.041C48.3575 305.989 49.7759 307.649 51.5604 308.836C53.3448 310.022 55.4246 310.687 57.5663 310.757C59.708 310.827 61.8267 310.299 63.6848 309.231C65.1583 308.379 66.0705 306.555 66.0705 303.959C66.0585 302.851 65.9104 301.748 65.6295 300.676C65.6245 303.969 63.6397 307.312 57.3295 307.888Z" fill="#37474F"/>
<path d="M51.2348 299.353C49.4305 298.315 47.972 299.157 47.972 301.237C48.0326 302.369 48.3597 303.471 48.9267 304.452C49.4937 305.434 50.2846 306.268 51.2348 306.886C53.0342 307.928 54.4927 307.081 54.4927 305.001C54.4314 303.87 54.1046 302.769 53.5386 301.788C52.9726 300.806 52.1833 299.972 51.2348 299.353Z" fill="#263238"/>
<path d="M49.1447 300.561C49.2069 301.692 49.5347 302.793 50.1016 303.775C50.6684 304.756 51.4584 305.59 52.4076 306.209C52.8949 306.522 53.4685 306.673 54.0465 306.64C54.3634 306.154 54.5194 305.581 54.4926 305.001C54.4313 303.87 54.1045 302.769 53.5385 301.788C52.9725 300.806 52.1832 299.972 51.2347 299.353C50.7446 299.042 50.1702 298.892 49.5908 298.922C49.2761 299.409 49.1202 299.981 49.1447 300.561Z" fill="#54117C"/>
<path opacity="0.1" d="M49.2901 301.743C49.7155 303.578 50.8322 305.178 52.4076 306.209C52.895 306.522 53.4685 306.673 54.0466 306.64C54.3634 306.154 54.5195 305.581 54.4926 305.001C54.4853 304.443 54.3958 303.889 54.227 303.357C53.2145 305.182 49.8114 303.513 49.2901 301.743Z" fill="black"/>
<path d="M53.4653 305.543C53.5719 305.266 53.6229 304.972 53.6156 304.675C53.5707 303.85 53.3317 303.047 52.918 302.331C52.5044 301.615 51.9277 301.007 51.2349 300.556C50.3378 300.054 49.5559 300.165 49.1549 300.776C49.1201 300.825 49.0899 300.877 49.0647 300.931C44.7393 308.515 43.5514 321.05 53.5254 334.011L58.2969 330.347C50.854 320.654 50.854 311.522 53.4653 305.543Z" fill="#54117C"/>
<path d="M53.786 343.118C53.5757 343.118 53.3688 343.065 53.1841 342.964C52.9994 342.863 52.8428 342.718 52.7284 342.542C51.8738 341.25 51.4456 339.724 51.504 338.176C51.5624 336.629 52.1046 335.139 53.0542 333.916C53.2536 333.65 53.5504 333.474 53.8794 333.427C54.2084 333.38 54.5426 333.466 54.8084 333.665C55.0743 333.865 55.2501 334.161 55.2971 334.49C55.3441 334.819 55.2584 335.154 55.059 335.419C54.4234 336.236 54.0602 337.232 54.0206 338.266C53.9811 339.3 54.2671 340.321 54.8385 341.183C54.9599 341.373 55.0281 341.591 55.0361 341.815C55.0441 342.04 54.9915 342.263 54.8839 342.46C54.7763 342.657 54.6176 342.822 54.4244 342.937C54.2312 343.052 54.0107 343.113 53.786 343.113V343.118Z" fill="#581182"/>
<path d="M60.3457 335.874C62.3947 333.423 62.0691 329.776 59.6185 327.727C57.1679 325.678 53.5202 326.003 51.4712 328.454C49.4222 330.904 49.7477 334.552 52.1983 336.601C54.6489 338.65 58.2966 338.325 60.3457 335.874Z" fill="white"/>
<path opacity="0.2" d="M60.3217 335.901C59.59 336.663 56.5226 337.404 54.4927 334.673C52.1621 331.525 54.3223 326.608 57.4999 326.603C56.5001 326.318 55.442 326.308 54.4369 326.574C53.4318 326.84 52.5169 327.372 51.7885 328.113C51.0601 328.855 50.5451 329.779 50.2976 330.789C50.0501 331.799 50.0794 332.857 50.3823 333.851C50.6852 334.846 51.2506 335.74 52.0189 336.44C52.7872 337.141 53.7301 337.621 54.7483 337.831C55.7666 338.041 56.8225 337.972 57.8051 337.632C58.7876 337.293 59.6605 336.695 60.3318 335.901H60.3217Z" fill="white"/>
<path opacity="0.3" d="M59.3644 328.302C59.3213 328.255 59.2744 328.211 59.224 328.172C58.9527 327.943 58.6486 327.755 58.3218 327.616C57.9637 327.432 57.5585 327.36 57.159 327.41C56.9538 327.447 56.7691 327.557 56.6398 327.721C56.5105 327.884 56.4456 328.089 56.4574 328.297C56.5325 328.693 56.9586 328.909 57.3144 329.079C58.2533 329.525 59.145 330.064 59.9758 330.688C60.0135 330.725 60.0583 330.753 60.1075 330.771C60.1567 330.789 60.2092 330.797 60.2615 330.793C60.3968 330.763 60.447 330.598 60.452 330.458C60.5021 329.631 59.9207 328.914 59.3644 328.302Z" fill="white"/>
<path d="M64.3814 339.354C64.0768 339.354 63.7826 339.243 63.5539 339.042C63.3251 338.841 63.1774 338.563 63.1384 338.261C63.0428 337.23 62.6254 336.256 61.9455 335.475C61.2655 334.694 60.3573 334.147 59.3493 333.911C59.0269 333.83 58.75 333.624 58.5794 333.339C58.4088 333.053 58.3585 332.712 58.4396 332.39C58.5207 332.067 58.7265 331.79 59.0118 331.62C59.2971 331.449 59.6384 331.399 59.9608 331.48C61.469 331.836 62.8275 332.656 63.8446 333.825C64.8617 334.994 65.486 336.453 65.6294 337.996C65.6475 338.159 65.6332 338.324 65.5872 338.482C65.5413 338.64 65.4647 338.787 65.3618 338.915C65.2589 339.043 65.1317 339.149 64.9875 339.228C64.8434 339.307 64.6851 339.357 64.5218 339.374L64.3814 339.354Z" fill="#581182"/>
<path d="M109.009 265.667C109.009 261.867 106.503 258.068 101.491 255.171C91.4668 249.372 75.1725 249.372 65.1283 255.171C60.1163 258.068 57.6102 261.867 57.6102 265.667V270.373C57.6102 274.172 60.1163 277.971 65.1283 280.868C75.1525 286.667 91.4517 286.667 101.491 280.868C106.503 277.971 109.009 274.172 109.009 270.373V265.667Z" fill="#37474F"/>
<path d="M87.3318 285.028C81.1469 285.153 73.1075 282.337 75.1525 275.074V251.588C71.637 252.224 68.2502 253.434 65.1283 255.171C60.1163 258.068 57.6102 261.867 57.6102 265.667V270.373C57.6102 274.172 60.1163 277.971 65.1283 280.868C71.1629 284.362 79.4829 285.745 87.3318 285.028Z" fill="#263238"/>
<path d="M101.476 276.167C91.4517 281.966 75.1574 281.961 65.1133 276.167C60.1012 273.265 57.5952 269.466 57.5952 265.641C57.5952 261.817 60.1012 258.043 65.1133 255.146C75.1374 249.347 91.4366 249.347 101.476 255.146C106.488 258.043 108.994 261.842 108.994 265.641C108.994 269.441 106.498 273.265 101.476 276.167Z" fill="#263238"/>
<path d="M117.895 272.603L116.783 271.601C117.855 270.413 119.088 268.594 118.863 266.589C118.692 265.115 117.715 263.752 115.951 262.539C113.934 261.139 111.744 260.009 109.435 259.176C109.295 258.595 109.009 257.672 108.934 257.422C111.741 258.306 114.396 259.614 116.808 261.301C118.938 262.77 120.136 264.494 120.356 266.413C120.647 268.959 119.173 271.18 117.895 272.603Z" fill="#263238"/>
<path d="M118.351 270.684C116.898 269.546 115.931 270.182 113.991 272.548C112.051 274.914 112.598 275.876 113.8 276.823C115.003 277.771 116.306 277.189 117.84 275.215C119.544 272.994 120.081 272.042 118.351 270.684Z" fill="#581182"/>
<path opacity="0.3" d="M115.013 272.303C114.497 272.785 114.056 273.343 113.705 273.956C113.585 274.155 113.509 274.378 113.483 274.609C113.457 274.84 113.481 275.074 113.555 275.295C113.648 275.488 113.781 275.659 113.946 275.796C114.263 276.11 114.683 276.298 115.129 276.327C115.207 276.334 115.286 276.316 115.354 276.277C115.395 276.243 115.428 276.2 115.45 276.151C115.473 276.103 115.485 276.05 115.485 275.996C115.545 275.53 115.419 275.059 115.485 274.593C115.62 273.41 116.863 272.543 116.873 271.355C116.877 271.29 116.865 271.224 116.838 271.165C116.707 270.924 116.337 271.07 116.141 271.165C116.056 271.229 115.977 271.301 115.906 271.38C115.775 271.516 115.64 271.651 115.51 271.791L115.013 272.303Z" fill="white"/>
<path d="M112.086 264.494C112.137 260.681 111.429 256.896 110.005 253.358C108.58 249.821 106.468 246.602 103.789 243.888C101.11 241.174 97.9195 239.019 94.4013 237.548C90.8831 236.077 87.1078 235.319 83.2945 235.319C79.4812 235.319 75.7059 236.077 72.1877 237.548C68.6695 239.019 65.4785 241.174 62.8 243.888C60.1214 246.602 58.0086 249.821 56.5843 253.358C55.1599 256.896 54.4524 260.681 54.5027 264.494C54.5027 268.744 57.3145 273.014 62.938 276.247C74.1801 282.763 92.409 282.763 103.656 276.247C109.28 272.999 112.086 268.749 112.086 264.494Z" fill="#461066"/>
<path opacity="0.8" d="M112.086 264.494C112.137 260.681 111.429 256.896 110.005 253.358C108.58 249.821 106.468 246.602 103.789 243.888C101.11 241.174 97.9195 239.019 94.4013 237.548C90.8831 236.077 87.1078 235.319 83.2945 235.319C79.4812 235.319 75.7059 236.077 72.1877 237.548C68.6695 239.019 65.4785 241.174 62.8 243.888C60.1214 246.602 58.0086 249.821 56.5843 253.358C55.1599 256.896 54.4524 260.681 54.5027 264.494C54.5027 268.744 57.3145 273.014 62.938 276.247C74.1801 282.763 92.409 282.763 103.656 276.247C109.28 272.999 112.086 268.749 112.086 264.494Z" fill="#581182"/>
<path opacity="0.3" d="M108.307 272.729C93.3312 281.956 73.5636 280.978 73.1175 271.18C72.8118 264.494 69.3584 258.915 64.8626 256.329C65.3187 245.804 72.3055 237.459 79.8587 235.915C72.8716 236.755 66.4343 240.126 61.7633 245.39C57.0924 250.654 54.5112 257.446 54.5077 264.484C54.5077 268.734 57.3195 273.004 62.943 276.237C74.1851 282.753 92.414 282.753 103.661 276.237C104.881 275.539 106.035 274.733 107.109 273.826L108.267 272.764L108.307 272.729Z" fill="#461066"/>
<path d="M111.214 257.452C109.937 252.375 107.296 247.743 103.576 244.06C103.576 247.067 101.606 250.074 97.6415 252.344C92.9703 255.041 86.615 256.149 80.5153 255.667C79.1928 255.557 77.8772 255.949 76.8311 256.766C75.785 257.582 75.0853 258.763 74.8717 260.073C74.4306 262.8 74.16 265.441 74.0046 267.792C73.9076 269.142 74.34 270.476 75.21 271.513C76.0801 272.549 77.3196 273.207 78.6658 273.345C87.2665 274.177 96.4086 272.678 103.04 268.834C108.488 265.692 111.214 261.577 111.214 257.452Z" fill="white"/>
<path d="M85.9033 266.363C85.8232 266.371 85.7427 266.371 85.6627 266.363C85.5002 266.333 85.3452 266.271 85.2068 266.181C85.0683 266.091 84.949 265.974 84.8559 265.838C84.7627 265.701 84.6974 265.547 84.6639 265.386C84.6303 265.224 84.6291 265.057 84.6603 264.895C84.8751 263.79 85.4126 262.775 86.2047 261.976C86.9968 261.177 88.0079 260.631 89.1103 260.407C90.2128 260.182 91.3569 260.29 92.3981 260.716C93.4393 261.142 94.3309 261.867 94.9601 262.8C95.1462 263.075 95.2151 263.414 95.1516 263.741C95.0882 264.067 94.8976 264.355 94.6218 264.541C94.4852 264.633 94.3318 264.698 94.1704 264.731C94.0089 264.764 93.8426 264.764 93.6808 264.733C93.3542 264.669 93.0662 264.479 92.8801 264.203C92.528 263.682 92.0297 263.278 91.448 263.04C90.8663 262.802 90.2272 262.742 89.6113 262.867C88.9954 262.992 88.4303 263.296 87.9871 263.742C87.544 264.187 87.2427 264.754 87.1212 265.371C87.0618 265.65 86.9086 265.901 86.6871 266.082C86.4656 266.262 86.189 266.361 85.9033 266.363Z" fill="#461066"/>
<path opacity="0.3" d="M85.9033 266.363C85.8232 266.371 85.7427 266.371 85.6627 266.363C85.5002 266.333 85.3452 266.271 85.2068 266.181C85.0683 266.091 84.949 265.974 84.8559 265.838C84.7627 265.701 84.6974 265.547 84.6639 265.386C84.6303 265.224 84.6291 265.057 84.6603 264.895C84.8751 263.79 85.4126 262.775 86.2047 261.976C86.9968 261.177 88.0079 260.631 89.1103 260.407C90.2128 260.182 91.3569 260.29 92.3981 260.716C93.4393 261.142 94.3309 261.867 94.9601 262.8C95.1462 263.075 95.2151 263.414 95.1516 263.741C95.0882 264.067 94.8976 264.355 94.6218 264.541C94.4852 264.633 94.3318 264.698 94.1704 264.731C94.0089 264.764 93.8426 264.764 93.6808 264.733C93.3542 264.669 93.0662 264.479 92.8801 264.203C92.528 263.682 92.0297 263.278 91.448 263.04C90.8663 262.802 90.2272 262.742 89.6113 262.867C88.9954 262.992 88.4303 263.296 87.9871 263.742C87.544 264.187 87.2427 264.754 87.1212 265.371C87.0618 265.65 86.9086 265.901 86.6871 266.082C86.4656 266.262 86.189 266.361 85.9033 266.363Z" fill="#581182"/>
<path d="M108.954 251.432C108.018 251.831 107.206 252.474 106.604 253.294C106.001 254.114 105.631 255.081 105.531 256.093C105.498 256.424 105.599 256.753 105.809 257.01C106.019 257.266 106.323 257.429 106.653 257.462C106.733 257.472 106.814 257.472 106.894 257.462C107.183 257.434 107.453 257.307 107.659 257.102C107.864 256.898 107.993 256.628 108.022 256.339C108.081 255.763 108.298 255.215 108.646 254.753C108.995 254.291 109.464 253.933 110.001 253.718C109.687 252.943 109.338 252.181 108.954 251.432Z" fill="#4B106F"/>
<path opacity="0.3" d="M108.954 251.432C108.018 251.831 107.206 252.474 106.604 253.294C106.001 254.114 105.631 255.081 105.531 256.093C105.498 256.424 105.599 256.753 105.809 257.01C106.019 257.266 106.323 257.429 106.653 257.462C106.733 257.472 106.814 257.472 106.894 257.462C107.183 257.434 107.453 257.307 107.659 257.102C107.864 256.898 107.993 256.628 108.022 256.339C108.081 255.763 108.298 255.215 108.646 254.753C108.995 254.291 109.464 253.933 110.001 253.718C109.687 252.943 109.338 252.181 108.954 251.432Z" fill="#4B106F"/>
<g opacity="0.1">
<path d="M98.9106 252.503C102.016 258.289 104.268 264.494 105.597 270.925C106.875 270.147 108.08 269.252 109.193 268.252C107.871 263.247 105.591 256.51 101.857 250.36C100.95 251.171 99.9625 251.889 98.9106 252.503Z" fill="white"/>
<path d="M96.2772 253.837C94.1991 254.729 92.0297 255.393 89.8077 255.815C91.0362 262.439 91.7981 269.142 92.0877 275.873C95.3108 275.298 98.4583 274.359 101.47 273.074C100.282 266.527 98.5453 260.092 96.2772 253.837Z" fill="white"/>
</g>
<path d="M47.2352 251.317C47.5822 251.664 47.8185 252.106 47.9143 252.587C48.01 253.069 47.9609 253.567 47.7731 254.021C47.5853 254.474 47.2674 254.862 46.8594 255.134C46.4514 255.407 45.9717 255.552 45.481 255.552C44.9903 255.552 44.5106 255.407 44.1026 255.134C43.6946 254.862 43.3766 254.474 43.1888 254.021C43.0011 253.567 42.9519 253.069 43.0477 252.587C43.1434 252.106 43.3798 251.664 43.7268 251.317C44.1952 250.858 44.825 250.601 45.481 250.601C46.1369 250.601 46.7667 250.858 47.2352 251.317Z" fill="#461066"/>
<path opacity="0.3" d="M47.2352 251.317C47.5557 251.637 47.7823 252.039 47.8905 252.479C47.9986 252.92 47.9842 253.381 47.8488 253.813C47.7133 254.246 47.462 254.633 47.1221 254.932C46.7822 255.232 46.3667 255.433 45.9207 255.513C45.4747 255.594 45.0153 255.55 44.5922 255.388C44.1691 255.225 43.7986 254.95 43.5209 254.592C43.2431 254.234 43.0687 253.807 43.0167 253.357C42.9646 252.907 43.0368 252.451 43.2255 252.039C43.2255 252.099 43.2255 252.164 43.2656 252.224C43.4962 252.951 44.5086 253.272 45.521 252.946C46.5335 252.62 47.15 251.793 46.9344 251.071C47.0427 251.143 47.1435 251.225 47.2352 251.317Z" fill="black"/>
<path d="M110.465 301.609C110.425 306.856 107.171 311.085 103.197 311.054C99.222 311.024 96.0324 306.746 96.0724 301.5C96.1124 296.253 99.3668 292.025 103.341 292.055C107.316 292.085 110.505 296.363 110.465 301.609ZM98.0249 301.515C97.9958 305.338 100.32 308.455 103.216 308.477C106.112 308.499 108.484 305.418 108.513 301.595C108.542 297.771 106.218 294.654 103.322 294.632C100.426 294.61 98.054 297.691 98.0249 301.515Z" fill="white"/>
<path d="M46.8794 253.592C46.676 253.661 46.4912 253.776 46.3399 253.928C46.1885 254.08 46.0746 254.266 46.0073 254.47C45.9801 254.541 45.9722 254.619 45.9845 254.695C45.9969 254.77 46.0289 254.841 46.0775 254.901L56.6028 265.426L57.8408 264.188L47.3155 253.663C47.2559 253.613 47.1839 253.58 47.1071 253.567C47.0303 253.555 46.9517 253.564 46.8794 253.592Z" fill="#263238"/>
<path opacity="0.3" d="M43.8921 251.467C43.8427 251.519 43.8093 251.584 43.796 251.654C43.7827 251.724 43.7899 251.797 43.8169 251.863C43.9171 252.009 44.1427 251.964 44.3181 251.913C44.9417 251.787 45.5764 251.723 46.2127 251.723C46.3388 251.726 46.4639 251.7 46.5785 251.648C46.6074 251.628 46.632 251.603 46.6506 251.574C46.6693 251.544 46.6816 251.511 46.6868 251.477C46.6919 251.443 46.6899 251.407 46.6808 251.374C46.6716 251.34 46.6556 251.309 46.6337 251.282C46.5429 251.162 46.4264 251.065 46.2928 250.996C45.9781 250.817 45.6161 250.738 45.2553 250.771C44.9367 250.788 44.627 250.882 44.3532 251.046C44.1742 251.156 44.0177 251.299 43.8921 251.467Z" fill="#461066"/>
<path d="M57.1742 256.87C54.6493 258.458 52.8382 260.963 52.1214 263.858C51.4046 266.754 51.838 269.814 53.3304 272.397C54.8227 274.979 57.258 276.883 60.1245 277.707C62.9909 278.532 66.0654 278.213 68.7019 276.818C70.1755 275.966 71.0877 274.142 71.0877 271.546C71.0877 266.353 67.4439 260.018 62.9481 257.442C60.6876 256.144 58.6477 256.018 57.1742 256.87Z" fill="#455A64"/>
<path d="M62.3365 275.475C56.4423 276.011 52.192 271.29 51.5104 265.396C51.2452 267.522 51.5779 269.68 52.4712 271.628C53.3644 273.576 54.7829 275.236 56.5674 276.422C58.3518 277.609 60.4316 278.274 62.5733 278.344C64.7149 278.414 66.8337 277.886 68.6918 276.818C70.1653 275.966 71.0775 274.142 71.0775 271.546C71.0674 270.439 70.9209 269.338 70.6415 268.268C70.6314 271.561 68.6467 274.899 62.3365 275.475Z" fill="#37474F"/>
<path d="M56.242 266.945C54.4376 265.902 52.9791 266.744 52.9791 268.824C53.0397 269.956 53.3669 271.058 53.9339 272.039C54.5009 273.021 55.2917 273.855 56.242 274.473C58.0413 275.515 59.4998 274.673 59.4998 272.593C59.439 271.462 59.1123 270.361 58.5462 269.379C57.9802 268.398 57.1908 267.564 56.242 266.945Z" fill="#263238"/>
<path d="M54.1519 268.147C54.2137 269.279 54.5413 270.38 55.1082 271.362C55.6751 272.343 56.4653 273.177 57.4147 273.796C57.9021 274.109 58.4756 274.259 59.0537 274.227C59.3714 273.743 59.5276 273.171 59.4997 272.593C59.4389 271.462 59.1122 270.361 58.5461 269.379C57.9801 268.398 57.1907 267.564 56.2419 266.945C55.7527 266.632 55.1776 266.481 54.5979 266.514C54.2824 266.998 54.1264 267.57 54.1519 268.147Z" fill="#581182"/>
<path opacity="0.1" d="M54.2971 269.33C54.7211 271.165 55.8381 272.766 57.4146 273.796C57.902 274.109 58.4755 274.259 59.0536 274.227C59.3713 273.743 59.5275 273.171 59.4996 272.593C59.4927 272.033 59.4032 271.478 59.234 270.944C58.2216 272.759 54.8184 271.1 54.2971 269.33Z" fill="black"/>
<path d="M92.2586 228.597C90.4695 227.551 88.4343 227 86.3619 227C84.2894 227 82.2543 227.551 80.4652 228.597L74.2552 232.186C69.7725 234.781 66.05 238.508 63.4604 242.994C60.8708 247.48 59.505 252.568 59.4997 257.747C59.5081 257.836 59.5399 257.921 59.5918 257.993C59.6438 258.065 59.7141 258.122 59.7954 258.158C60.0153 258.269 60.2583 258.327 60.5046 258.327C60.751 258.327 60.9939 258.269 61.2138 258.158C61.2942 258.122 61.3635 258.064 61.4145 257.992C61.4656 257.92 61.4966 257.836 61.5045 257.747C61.5121 252.922 62.7864 248.183 65.1999 244.004C67.6134 239.825 71.0815 236.353 75.2576 233.935L81.4676 230.347C82.9135 229.515 84.5478 229.067 86.2154 229.045C87.8831 229.023 89.5288 229.427 90.9964 230.219C92.464 231.011 93.7048 232.166 94.6011 233.572C95.4975 234.978 96.0195 236.591 96.1179 238.256C96.1179 238.256 96.1179 238.717 96.1179 238.722C97.0752 239.188 98.1227 239.824 98.1227 239.824V238.822C98.1393 236.751 97.605 234.713 96.5746 232.916C95.5441 231.119 94.0546 229.629 92.2586 228.597Z" fill="#263238"/>
<g opacity="0.3">
<path d="M60.5921 259.104C59.1637 258.314 57.4879 257.932 55.7981 258.01C55.5207 258.212 55.2321 258.419 55 258.636C55.4375 258.524 55.8911 258.468 56.3471 258.468C57.7512 258.515 59.1169 258.88 60.3091 259.527C65.3069 262.04 69.3651 268.164 69.3651 273.179C69.3651 275.121 69.3054 276.044 68.2187 277C68.5583 276.921 68.9035 276.818 69.2431 276.709C70.1355 275.482 70.0243 274.631 69.9537 273.179C69.9367 268.006 65.7427 261.69 60.5921 259.104Z" fill="white"/>
</g>
<circle cx="150" cy="331" r="12" fill="white"/>
<defs>
<clipPath id="clip0_192_564">
<rect width="357" height="357" fill="white"/>
</clipPath>
</defs>
</svg>
